<?xml version="1.0" encoding="UTF-8"?>
<svg id="Warstwa_2" data-name="Warstwa 2" xmlns="http://www.w3.org/2000/svg" viewBox="0 0 271.43 350.25">
  <defs>
    <style>
      .cls-1 {
        fill: #fff;
        stroke-width: 0px;
      }
    </style>
  </defs>
  <g id="Warstwa_2-2" data-name="Warstwa 2">
    <g>
      <path class="cls-1" d="M136.48,110.54c-.26.1-.17.08,0,0h0Z"/>
      <path class="cls-1" d="M148.39,189.1h123.03v-66.22c0-35.64-26.09-66.99-61.27-70.34-24.48-2.33-46.44,8.53-60,26.31-1.92,2.52-5.06,3.77-8.11,2.95-.25-.07-.5-.13-.74-.2-3.29-.89-5.58-3.91-5.58-7.35v-3.47C135.72,34.33,108.45,2.5,72.38.15,32.85-2.42,0,29.14,0,68.44v68.43h123.03c6,0,11.55,4.13,12.51,10.1,1.23,7.61-4.56,14.18-11.87,14.18h-53.49C34.04,161.15,2.48,188.66.15,225.03c-2.56,39.86,28.74,72.99,67.71,72.99h67.85v52.23h65.53c36.14,0,67.7-27.51,70.04-63.88,2.56-39.86-28.74-72.99-67.71-72.99h-55.82c-7.31,0-13.1-6.57-11.87-14.18.96-5.97,6.52-10.1,12.52-10.1h0Z"/>
    </g>
  </g>
</svg>