<?xml version="1.0" encoding="UTF-8"?>
<svg id="Warstwa_2" data-name="Warstwa 2" xmlns="http://www.w3.org/2000/svg" viewBox="0 0 103.83 88">
  <defs>
    <style>
      .cls-1 {
        fill: none;
      }

      .cls-1, .cls-2 {
        stroke-width: 0px;
      }

      .cls-2 {
        fill: #fff;
      }
    </style>
  </defs>
  <g id="Warstwa_2-2" data-name="Warstwa 2">
    <g>
      <rect class="cls-1" width="103.83" height="88"/>
      <g>
        <path class="cls-2" d="M60.17,43.82c-5.04,6.05-10.51,9-13.32,9-1.8,0-2.09-1.22-1.44-2.74l12.46-27.87c-4.61.5-20.59,14.26-27.51,30.03h-4.54l13.32-30.03c-4.54.5-20.52,14.26-27.51,30.03h-4.53l13.39-30.03c-2.16.22-5.83,2.16-9.43,5.04l-.22-.36c5.11-6.05,10.58-9,13.39-9,1.94,0,2.02,1.51,1.44,2.81l-8.5,19.15c6.12-10.08,17.71-21.96,24.91-21.96,3.02,0,2.52,2.23,1.22,5.04l-7.49,16.92c6.26-10.3,17.71-21.96,24.99-21.96,3.02,0,2.38,2.3,1.15,5.04l-11.38,25.56c2.09-.14,5.76-2.16,9.36-5.04l.22.36h.02Z"/>
        <path class="cls-2" d="M96.73,18.55c-4.46,22.97-30.24,51.56-46.88,51.56-3.24,0-4.82-1.22-4.82-3.17s1.58-3.53,4.39-4.03l1.15,5.18c13.68-1.58,24.63-18.43,24.63-36.44,0-2.74-.29-7.13-1.15-9.43-1.51,1.15-3.82,3.53-6.26,7.99h-.36c2.16-7.78,5.47-12.31,8.57-12.31.94,0,1.58.43,2.16,1.87,3.24,9.07.36,27.36-7.42,37.3,11.02-10.8,18.36-23.4,21.1-38.09,1.37-.72,3.38-.86,4.9-.43h-.01Z"/>
      </g>
    </g>
  </g>
</svg>