<?xml version="1.0" encoding="UTF-8"?>
<svg id="Warstwa_2" data-name="Warstwa 2" xmlns="http://www.w3.org/2000/svg" viewBox="0 0 203.98 88">
  <defs>
    <style>
      .cls-1 {
        fill: none;
      }

      .cls-1, .cls-2 {
        stroke-width: 0px;
      }

      .cls-2 {
        fill: #fff;
      }
    </style>
  </defs>
  <g id="Warstwa_2-2" data-name="Warstwa 2">
    <g>
      <rect class="cls-1" width="203.98" height="88"/>
      <g>
        <path class="cls-2" d="M21.45,53.04c-3.22,0-5.87-.49-7.96-1.48-2.09-.98-3.7-2.38-4.82-4.18-1.13-1.8-1.96-3.92-2.48-6.37l3.6-.72c.48,1.68,1.13,3.24,1.94,4.68.82,1.44,1.99,2.58,3.53,3.42,1.54.84,3.6,1.26,6.19,1.26,2.88,0,5.04-.58,6.48-1.73,1.44-1.15,2.16-2.69,2.16-4.61,0-1.15-.31-2.14-.94-2.95-.62-.82-1.69-1.49-3.2-2.02-1.51-.53-3.59-.98-6.23-1.37-2.78-.48-5.03-1.14-6.73-1.98-1.7-.84-2.95-1.9-3.74-3.17-.79-1.27-1.19-2.75-1.19-4.43,0-2.69,1.01-4.9,3.02-6.62,2.02-1.73,4.9-2.59,8.64-2.59,2.64,0,4.84.41,6.59,1.22,1.75.82,3.14,2.02,4.18,3.6,1.03,1.58,1.84,3.53,2.41,5.83l-3.74.86c-.72-2.93-1.81-5.03-3.28-6.3-1.46-1.27-3.49-1.91-6.08-1.91s-4.5.52-5.87,1.55-2.05,2.41-2.05,4.14c0,1.15.3,2.16.9,3.02s1.6,1.58,2.99,2.16c1.39.58,3.26,1.03,5.62,1.37,2.88.38,5.26,1.01,7.13,1.87,1.87.86,3.24,1.94,4.1,3.24s1.3,2.81,1.3,4.54c0,1.92-.46,3.6-1.37,5.04s-2.29,2.57-4.14,3.38c-1.85.82-4.17,1.22-6.95,1.22v.03Z"/>
        <path class="cls-2" d="M53.46,52.97c-3.5,0-6.48-.71-8.93-2.12-2.45-1.42-4.34-3.44-5.69-6.08-1.34-2.64-2.02-5.76-2.02-9.36s.71-6.68,2.12-9.25c1.42-2.57,3.38-4.54,5.9-5.9,2.52-1.37,5.39-2.05,8.6-2.05s6.14.68,8.64,2.05,4.45,3.34,5.87,5.9c1.42,2.57,2.12,5.65,2.12,9.25,0,5.42-1.46,9.71-4.39,12.85s-7.01,4.72-12.24,4.72h.02ZM53.46,21.72c-3.98,0-7.13,1.22-9.43,3.67s-3.46,5.78-3.46,10.01c0,2.78.5,5.23,1.51,7.34,1.01,2.11,2.46,3.76,4.36,4.93,1.9,1.18,4.21,1.76,6.95,1.76,4.13,0,7.31-1.3,9.54-3.89,2.23-2.59,3.35-5.98,3.35-10.15,0-2.88-.52-5.33-1.55-7.34-1.03-2.02-2.51-3.58-4.43-4.68s-4.2-1.66-6.84-1.66h0Z"/>
        <path class="cls-2" d="M99.71,43.46h-1.3l.86-4.03c-.05,2.98-.62,5.46-1.73,7.45-1.1,1.99-2.58,3.5-4.43,4.54-1.85,1.03-4,1.55-6.44,1.55-3.22,0-5.74-.62-7.56-1.87-1.82-1.25-3.11-2.89-3.85-4.93-.74-2.04-1.12-4.24-1.12-6.59v-20.66h3.82v20.02c0,1.73.29,3.41.86,5.04.58,1.63,1.57,2.95,2.99,3.96,1.42,1.01,3.35,1.51,5.8,1.51s4.36-.42,6.01-1.26c1.66-.84,2.95-2.05,3.89-3.64s1.4-3.46,1.4-5.62v-20.02h3.82v33.34h-3.82v-11.38l.79,2.59h0Z"/>
        <path class="cls-2" d="M111.97,28.13l.94-.07-.58,2.38c.19-1.92.55-3.6,1.08-5.04s1.25-2.64,2.16-3.6,1.99-1.68,3.24-2.16,2.69-.72,4.32-.72h2.38v4.03h-2.45c-2.3,0-4.24.36-5.8,1.08s-2.72,1.84-3.49,3.35-1.15,3.52-1.15,6.01v18.86h-3.82V18.91h3.82v10.66l-.65-1.44h0Z"/>
        <path class="cls-2" d="M152.79,31.58c-.48-2.11-1.22-3.9-2.23-5.36s-2.3-2.58-3.89-3.35c-1.58-.77-3.55-1.15-5.9-1.15-3.84,0-6.96,1.19-9.36,3.56-2.4,2.38-3.6,5.84-3.6,10.4,0,2.78.54,5.21,1.62,7.27s2.62,3.65,4.61,4.75,4.31,1.66,6.95,1.66,4.81-.44,6.37-1.33c1.56-.89,2.77-2.1,3.64-3.64.86-1.54,1.54-3.26,2.02-5.18l3.67.94c-.91,4.03-2.62,7.18-5.11,9.43-2.5,2.26-6,3.38-10.51,3.38-3.46,0-6.46-.7-9-2.09-2.54-1.39-4.52-3.42-5.94-6.08-1.42-2.66-2.12-5.77-2.12-9.32s.74-6.74,2.23-9.29c1.49-2.54,3.49-4.51,6.01-5.9,2.52-1.39,5.39-2.09,8.6-2.09,3.02,0,5.6.5,7.74,1.51s3.86,2.44,5.18,4.28c1.32,1.85,2.24,4.12,2.77,6.8l-3.74.79h0Z"/>
        <path class="cls-2" d="M175.78,52.97c-3.46,0-6.46-.7-9-2.09-2.54-1.39-4.5-3.4-5.87-6.01-1.37-2.62-2.05-5.72-2.05-9.32s.72-6.77,2.16-9.36,3.42-4.57,5.94-5.94,5.39-2.05,8.6-2.05,6.02.65,8.28,1.94c2.26,1.3,3.97,3.08,5.15,5.36s1.76,4.98,1.76,8.1c0,.29.01.72.04,1.3.02.58-.01,1.18-.11,1.8h-29.45v-3.31h27.07l-1.15,1.3c.05-4.08-.88-7.27-2.77-9.58-1.9-2.3-4.86-3.46-8.89-3.46s-6.98,1.19-9.29,3.56c-2.3,2.38-3.46,5.87-3.46,10.48,0,4.27,1.15,7.64,3.46,10.12,2.3,2.47,5.5,3.71,9.58,3.71,2.35,0,4.28-.38,5.8-1.15,1.51-.77,2.7-1.8,3.56-3.1.86-1.3,1.51-2.71,1.94-4.25l3.53,1.08c-.53,2.26-1.45,4.21-2.77,5.87-1.32,1.66-2.99,2.9-5,3.74-2.02.84-4.37,1.26-7.06,1.26h0Z"/>
      </g>
    </g>
  </g>
</svg>