<svg xmlns="http://www.w3.org/2000/svg" width="34.541" height="41" viewBox="0 0 34.541 41">
  <g id="Group_2503" data-name="Group 2503" transform="translate(-666.96 -908.481)">
    <line id="Line_4848" data-name="Line 4848" y2="3.81" transform="translate(678.888 908.981)" fill="none" stroke="#313130" stroke-linecap="round" stroke-linejoin="round" stroke-width="1"/>
    <line id="Line_4849" data-name="Line 4849" x1="3.81" transform="translate(676.983 910.886)" fill="none" stroke="#313130" stroke-linecap="round" stroke-linejoin="round" stroke-width="1"/>
    <line id="Line_4850" data-name="Line 4850" y2="3.81" transform="translate(692.221 945.171)" fill="none" stroke="#313130" stroke-linecap="round" stroke-linejoin="round" stroke-width="1"/>
    <line id="Line_4851" data-name="Line 4851" x1="3.81" transform="translate(690.317 947.076)" fill="none" stroke="#313130" stroke-linecap="round" stroke-linejoin="round" stroke-width="1"/>
    <path id="Path_6945" data-name="Path 6945" d="M352.607,779.61c-1.891,1.891-7.716,2.011-7.716,2.011s.438-5.509,2.328-7.4,3.859-.19,4.714.672S354.5,777.718,352.607,779.61Z" transform="translate(322.569 164.504)" fill="none" stroke="#313130" stroke-linecap="round" stroke-linejoin="round" stroke-width="1"/>
    <line id="Line_4856" data-name="Line 4856" x2="7.44" y2="7.44" transform="translate(678.888 927.255)" fill="none" stroke="#313130" stroke-linecap="round" stroke-linejoin="round" stroke-width="1"/>
    <line id="Line_4857" data-name="Line 4857" y1="2.021" x2="2.021" transform="translate(698.773 912.79)" fill="none" stroke="#313130" stroke-linecap="round" stroke-linejoin="round" stroke-width="1"/>
    <path id="Path_6946" data-name="Path 6946" d="M373.52,769l-.674-7.408-7.408-.674a5.682,5.682,0,0,0-5.387,2.693L348.6,780.448l2.7,2.693,2.693,2.7,16.836-11.45A5.684,5.684,0,0,0,373.52,769Z" transform="translate(325.927 153.219)" fill="none" stroke="#313130" stroke-linecap="round" stroke-linejoin="round" stroke-width="1"/>
    <path id="Path_6947" data-name="Path 6947" d="M355.694,768.285l-2.053-.785a3.81,3.81,0,0,0-4.055.865l-3.726,3.728a.953.953,0,0,0,.486,1.608l4.989,1" transform="translate(323.193 158.97)" fill="none" stroke="#313130" stroke-linecap="round" stroke-linejoin="round" stroke-width="1"/>
    <path id="Path_6948" data-name="Path 6948" d="M357.844,771.7l.785,2.053a3.81,3.81,0,0,1-.865,4.055l-3.728,3.728a.953.953,0,0,1-1.608-.486l-1-4.99" transform="translate(328.486 162.997)" fill="none" stroke="#313130" stroke-linecap="round" stroke-linejoin="round" stroke-width="1"/>
    <circle id="Ellipse_1026" data-name="Ellipse 1026" cx="2.857" cy="2.857" r="2.857" transform="translate(688.509 919.364)" fill="none" stroke="#313130" stroke-linecap="round" stroke-linejoin="round" stroke-width="1"/>
  </g>
</svg>
