<?xml version="1.0" encoding="UTF-8"?>
<svg id="Warstwa_2" data-name="Warstwa 2" xmlns="http://www.w3.org/2000/svg" xmlns:xlink="http://www.w3.org/1999/xlink" viewBox="0 0 198.43 198.43">
  <defs>
    <style>
      .cls-1, .cls-2 {
        fill: none;
      }

      .cls-3 {
        clip-path: url(#clippath-1);
      }

      .cls-4 {
        clip-path: url(#clippath-2);
      }

      .cls-2 {
        stroke-miterlimit: 4;
        stroke-width: 1px;
      }

      .cls-2, .cls-5, .cls-6 {
        stroke: #fff;
      }

      .cls-5 {
        stroke-miterlimit: 4;
        stroke-width: 1px;
      }

      .cls-5, .cls-6 {
        fill: #313130;
      }

      .cls-6 {
        stroke-miterlimit: 4;
        stroke-width: 1px;
      }

      .cls-7 {
        fill: #f0ddc9;
      }

      .cls-8 {
        clip-path: url(#clippath);
      }
    </style>
    <clipPath id="clippath">
      <rect class="cls-1" x="-811.44" y="-307.43" width="273.8" height="197.5"/>
    </clipPath>
    <clipPath id="clippath-1">
      <rect class="cls-1" x="-811.44" y="228.57" width="273.8" height="197.5"/>
    </clipPath>
    <clipPath id="clippath-2">
      <rect class="cls-1" x="25.17" y="50.37" width="137.2" height="130.36"/>
    </clipPath>
  </defs>
  <g id="Warstwa_1-2" data-name="Warstwa 1-2">
    <g id="Group_41746" data-name="Group 41746">
      <g class="cls-8">
        <g id="Mask_Group_10" data-name="Mask Group 10">
          <g id="Group_41628" data-name="Group 41628">
            <g id="Group_41627" data-name="Group 41627">
              <rect id="Rectangle_3390" data-name="Rectangle 3390" class="cls-1" x="-667.53" y="-499.18" width="724.19" height="595.24" transform="translate(37.51 -73.87) rotate(-13)"/>
            </g>
            <path id="Path_46233" data-name="Path 46233" class="cls-1" d="M101.97-393.23L-427.55,99.81l-406.41-435.16,529.52-493.04L101.97-393.23Z"/>
          </g>
        </g>
      </g>
    </g>
  </g>
  <g class="cls-3">
    <g id="Mask_Group_10-2" data-name="Mask Group 10">
      <g id="Group_41628-2" data-name="Group 41628">
        <g id="Group_41627-2" data-name="Group 41627">
          <rect id="Rectangle_3390-2" data-name="Rectangle 3390" class="cls-1" x="-667.53" y="36.81" width="724.19" height="595.24" transform="translate(-83.06 -60.14) rotate(-13)"/>
        </g>
        <path id="Path_46233-2" data-name="Path 46233" class="cls-1" d="M101.97,142.77l-529.52,493.04-406.41-435.16L-304.44-292.4,101.97,142.77Z"/>
      </g>
    </g>
  </g>
  <g id="Group_41714" data-name="Group 41714">
    <path id="Path_46222" data-name="Path 46222" class="cls-7" d="M140.27,146.23H0v9.24c0,23.73,17.42,42.96,38.92,42.96h101.35v-52.2Z"/>
    <g class="cls-4">
      <g id="Mask_Group_10-3" data-name="Mask Group 10">
        <g id="Group_41628-3" data-name="Group 41628">
          <g id="Group_41627-3" data-name="Group 41627">
            <path id="Path_46195" data-name="Path 46195" class="cls-6" d="M154.2,172.43c-.11-38.05,7.18-51.1,5.87-52.62-1.39-1.6-6.81,3.93-6.81,3.93-1.03-1.37,6.13-20.13,3.31-20.89-1.93-.52-6,10.41-6,10.41,0,0,3.21-14.41,1.14-15.24s-7.69,13.64-7.69,13.64c0,0,4.57-15.41,1.86-16.07s-8.86,16.21-8.86,16.21c0,0,3.56-11,.64-10.7-1.97.21-13.13,31.2-18.53,57.11-16.05,77.07-2.91,94.73-2.91,94.73l23.03-7.84,22.94-3.73s-7.84-20.03-7.99-68.94"/>
            <path id="Path_46196" data-name="Path 46196" class="cls-5" d="M57.59,134.28c8.02-37.19,3.6-51.48,5.21-52.69,1.69-1.28,5.84,5.26,5.84,5.26,1.29-1.13-1.81-20.96,1.11-21.12,1.99-.11,3.71,11.43,3.71,11.43,0,0-.15-14.76,2.05-15.15s4.68,14.94,4.68,14.94c0,0-1.27-16.03,1.53-16.1s5.3,17.7,5.3,17.7c0,0-1.19-11.5,1.59-10.6,1.89.61,6.36,33.25,6.25,59.71-.32,78.72-16.85,93.27-16.85,93.27l-20.9-12.45-21.66-8.42s11.83-17.96,22.15-65.77"/>
            <rect id="Rectangle_3390-3" data-name="Rectangle 3390" class="cls-1" x="89.99" y="-79.24" width="489" height="402.46" transform="translate(-18.87 78.37) rotate(-13)"/>
          </g>
          <rect id="Rectangle_3391" data-name="Rectangle 3391" class="cls-1" x="49.09" y="-189.33" width="489" height="402.46" transform="translate(70.75 203.42) rotate(-43)"/>
        </g>
      </g>
    </g>
    <g id="Group_41694" data-name="Group 41694">
      <line id="Line_25163-3" data-name="Line 25163-3" class="cls-2" x1="123.12" y1="73.4" x2="141.66" y2="42.55"/>
      <line id="Line_25164-3" data-name="Line 25164-3" class="cls-2" x1="134.26" y1="80.1" x2="158.96" y2="73.94"/>
      <line id="Line_25165" data-name="Line 25165" class="cls-2" x1="112.83" y1="67.22" x2="102.22" y2="24.68"/>
    </g>
  </g>
</svg>