<?xml version="1.0" encoding="UTF-8"?>
<svg id="Warstwa_2" data-name="Warstwa 2" xmlns="http://www.w3.org/2000/svg" viewBox="0 0 198.43 198.43">
  <defs>
    <style>
      .cls-1, .cls-2, .cls-3 {
        fill: none;
      }

      .cls-2 {
        stroke-miterlimit: 4;
        stroke-width: 1px;
      }

      .cls-2, .cls-3 {
        stroke: #fff;
      }

      .cls-4 {
        fill: #f0ddc9;
      }
    </style>
  </defs>
  <g id="Group_41717" data-name="Group 41717">
    <g id="Group_41709" data-name="Group 41709">
      <line id="Line_25163" data-name="Line 25163" class="cls-2" x1="38.27" y1="166.14" x2="20.81" y2="197.64"/>
      <line id="Line_25164" data-name="Line 25164" class="cls-2" x1="26.9" y1="159.84" x2="2.42" y2="166.86"/>
    </g>
    <g id="Group_41710" data-name="Group 41710">
      <line id="Line_25163-2" data-name="Line 25163-2" class="cls-2" x1="95.75" y1="72.93" x2="113.21" y2="41.43"/>
      <line id="Line_25164-2" data-name="Line 25164-2" class="cls-2" x1="107.13" y1="79.23" x2="131.61" y2="72.21"/>
    </g>
    <g id="Group_41704" data-name="Group 41704">
      <g id="Rectangle_3416" data-name="Rectangle 3416">
        <path class="cls-1" d="M51.04,120.43h67v46c0,17.67-14.33,32-32,32h-35v-78h0Z"/>
        <path class="cls-3" d="M51.54,120.93h66v45.5c0,17.4-14.1,31.5-31.5,31.5h-34.5v-77h0Z"/>
      </g>
      <g id="Group_7354" data-name="Group 7354">
        <path id="Path_21570" data-name="Path 21570" class="cls-4" d="M51.18,165.05l43.62-44.92c7.85-7.7,9.81-19.6,4.84-29.41-6.57-12.76-22.24-17.78-35-11.21-2.33,1.2-4.47,2.75-6.34,4.59l-7.12,6.49-7.12-6.49c-10.24-10.07-26.7-9.93-36.77.31-1.83,1.86-3.37,3.99-4.57,6.31-4.97,9.81-3.01,21.71,4.84,29.41l43.62,44.92Z"/>
      </g>
    </g>
  </g>
</svg>