<?xml version="1.0" encoding="UTF-8"?>
<svg id="Warstwa_2" data-name="Warstwa 2" xmlns="http://www.w3.org/2000/svg" xmlns:xlink="http://www.w3.org/1999/xlink" viewBox="0 0 198.43 198.43">
  <defs>
    <style>
      .cls-1 {
        fill: none;
      }

      .cls-2 {
        fill: #313130;
        stroke: #fff;
        stroke-linecap: round;
        stroke-linejoin: round;
      }

      .cls-3 {
        clip-path: url(#clippath-1);
      }

      .cls-4 {
        fill: #f0ddc9;
      }

      .cls-5 {
        clip-path: url(#clippath);
      }
    </style>
    <clipPath id="clippath">
      <rect class="cls-1" y="124.71" width="147.42" height="73.71"/>
    </clipPath>
    <clipPath id="clippath-1">
      <rect class="cls-1" x="-244.85" y="330.85" width="137.2" height="130.36"/>
    </clipPath>
  </defs>
  <g id="Group_41718" data-name="Group 41718">
    <g id="Group_41706" data-name="Group 41706">
      <g class="cls-5">
        <g id="Group_41705" data-name="Group 41705">
          <path id="Path_46227" data-name="Path 46227" class="cls-4" d="M73.71,198.43C33,198.43,0,165.42,0,124.71h44.44c0,16.17,13.11,29.27,29.27,29.27,16.17,0,29.27-13.11,29.27-29.27h44.44c0,40.71-33,73.71-73.71,73.71"/>
        </g>
      </g>
    </g>
    <g id="Athletics_3" data-name="Athletics 3">
      <path id="Path_36320" data-name="Path 36320" class="cls-2" d="M126.46,94.01c9.18,0,16.62-7.15,16.62-15.95s-7.44-15.95-16.62-15.95-16.62,7.14-16.62,15.95,7.44,15.95,16.62,15.95Z"/>
      <path id="Path_36321" data-name="Path 36321" class="cls-2" d="M183.37,100.02c-3.96-3.74-10.14-3.74-14.1,0l-11.36,10.91c-2.69,2.54-6.54,3.43-10.08,2.35l-50.97-15.57c-9.85-3.05-20.57-.96-28.55,5.57l-14.82,12.2c-2.73,2.15-4.04,5.64-3.4,9.06.69,3.44,3.19,6.24,6.53,7.31,3.38,1.13,7.11.44,9.85-1.84l14.82-12.2c2.65-2.19,6.23-2.88,9.51-1.85l13.2,4.04-17.3,37.85h-36.7c-5.29-.22-9.75,3.88-9.98,9.17s3.88,9.75,9.17,9.98c.27.01.54.01.81,0h43.2c3.91.04,7.47-2.21,9.13-5.74l4.81-10.52,23.27-2.03c3.19-.3,6.33.92,8.48,3.3l13.24,14.83c3.68,3.95,9.8,4.37,13.99.96,4.01-3.22,4.65-9.08,1.43-13.08-.09-.11-.18-.22-.28-.33l-13.27-14.82c-6.44-7.12-15.86-10.8-25.42-9.91l-12.28,1.07,6.81-14.87,18.66,5.7c10.61,3.28,22.16.58,30.22-7.05l11.35-10.91c3.74-3.52,3.93-9.4.41-13.15-.13-.14-.26-.27-.4-.4h0Z"/>
    </g>
  </g>
  <g id="Group_41714" data-name="Group 41714">
    <g class="cls-3">
      <g id="Mask_Group_10" data-name="Mask Group 10">
        <g id="Group_41628" data-name="Group 41628">
          <g id="Group_41627" data-name="Group 41627">
            <rect id="Rectangle_3390" data-name="Rectangle 3390" class="cls-1" x="-180.03" y="201.24" width="489" height="402.46" transform="translate(-88.88 24.82) rotate(-13)"/>
          </g>
          <rect id="Rectangle_3391" data-name="Rectangle 3391" class="cls-1" x="-220.93" y="91.15" width="489" height="402.46" transform="translate(-193.07 94.62) rotate(-43)"/>
        </g>
      </g>
    </g>
  </g>
</svg>