<?xml version="1.0" encoding="UTF-8"?>
<svg id="Warstwa_2" data-name="Warstwa 2" xmlns="http://www.w3.org/2000/svg" xmlns:xlink="http://www.w3.org/1999/xlink" viewBox="0 0 198.43 198.43">
  <defs>
    <style>
      .cls-1, .cls-2 {
        fill: none;
      }

      .cls-3 {
        fill: #c7d5c1;
      }

      .cls-4 {
        clip-path: url(#clippath-1);
      }

      .cls-2 {
        stroke: #fff;
        stroke-linecap: round;
        stroke-linejoin: round;
      }

      .cls-5 {
        clip-path: url(#clippath);
      }
    </style>
    <clipPath id="clippath">
      <rect class="cls-1" x="-541.42" y="-307.43" width="273.8" height="197.5"/>
    </clipPath>
    <clipPath id="clippath-1">
      <rect class="cls-1" x="-541.41" y="228.57" width="273.8" height="197.5"/>
    </clipPath>
  </defs>
  <g id="Warstwa_1-2" data-name="Warstwa 1-2">
    <g id="Group_41746" data-name="Group 41746">
      <g class="cls-5">
        <g id="Mask_Group_10" data-name="Mask Group 10">
          <g id="Group_41628" data-name="Group 41628">
            <g id="Group_41627" data-name="Group 41627">
              <rect id="Rectangle_3390" data-name="Rectangle 3390" class="cls-1" x="-397.5" y="-499.18" width="724.19" height="595.24" transform="translate(44.43 -13.13) rotate(-13)"/>
            </g>
            <path id="Path_46233" data-name="Path 46233" class="cls-1" d="M371.99-393.23L-157.53,99.81l-406.41-435.16L-34.42-828.39l406.41,435.16Z"/>
          </g>
        </g>
      </g>
    </g>
  </g>
  <g class="cls-4">
    <g id="Mask_Group_10-2" data-name="Mask Group 10">
      <g id="Group_41628-2" data-name="Group 41628">
        <g id="Group_41627-2" data-name="Group 41627">
          <rect id="Rectangle_3390-2" data-name="Rectangle 3390" class="cls-1" x="-397.51" y="36.81" width="724.19" height="595.24" transform="translate(-76.14 .61) rotate(-13)"/>
        </g>
        <path id="Path_46233-2" data-name="Path 46233" class="cls-1" d="M371.99,142.77L-157.53,635.81l-406.41-435.16L-34.42-292.4,371.99,142.77Z"/>
      </g>
    </g>
  </g>
  <g id="Group_41713" data-name="Group 41713">
    <g id="Group_41700" data-name="Group 41700">
      <g id="Group_7887" data-name="Group 7887">
        <line id="Line_15081" data-name="Line 15081" class="cls-2" x1="83.11" y1="198.43" x2="63.22" y2="198.43"/>
        <line id="Line_15082" data-name="Line 15082" class="cls-2" x1="89.73" y1="185.7" x2="56.59" y2="185.7"/>
        <path id="Path_25251" data-name="Path 25251" class="cls-3" d="M112.93,128.43c.02-18.13-13.24-33.77-31.73-37.43s-37.12,5.66-44.57,22.31-1.69,36.04,13.81,46.4c1.76,1.16,2.83,3.12,2.84,5.22v4.85c.04,1.79,1.52,3.22,3.31,3.18h33.14c1.79.04,3.28-1.39,3.31-3.18v-4.86c.01-2.11,1.08-4.07,2.84-5.22,10.57-6.91,16.97-18.65,17.04-31.27Z"/>
      </g>
      <g id="Group_2781" data-name="Group 2781">
        <path id="Path_7554" data-name="Path 7554" class="cls-2" d="M42.53,179.74l-7.68,3.65c-5.91,2.83-13,.33-15.83-5.59-1.55-3.24-1.55-7.01,0-10.25l3.65-7.68c2.82-5.92.3-13-5.62-15.82-.37-.17-.74-.33-1.12-.47l-8.01-2.85c-6.18-2.19-9.41-8.98-7.22-15.16,1.2-3.37,3.85-6.02,7.22-7.22l8.01-2.85c6.18-2.19,9.41-8.98,7.21-15.16-.14-.38-.29-.75-.46-1.12l-3.65-7.68c-2.83-5.91-.34-13,5.57-15.84,3.24-1.55,7.01-1.56,10.26,0l7.68,3.65c5.92,2.81,13,.29,15.82-5.63.17-.36.33-.73.46-1.11l2.85-8.01c2.19-6.18,8.98-9.41,15.16-7.22,3.37,1.2,6.02,3.85,7.22,7.22l2.85,8.01c2.2,6.18,8.99,9.41,15.16,7.21.38-.14.76-.29,1.12-.46l7.68-3.66c5.91-2.83,13-.34,15.84,5.58,1.55,3.24,1.55,7.02,0,10.26l-3.65,7.68c-2.82,5.92-.3,13,5.62,15.82.37.17.74.33,1.12.47l8.01,2.85c6.18,2.19,9.41,8.98,7.22,15.16-1.2,3.37-3.85,6.02-7.22,7.22l-8.01,2.85c-6.18,2.2-9.41,8.98-7.21,15.16.14.38.29.76.47,1.12l3.65,7.67c2.83,5.91.34,13-5.58,15.84-3.24,1.55-7.02,1.55-10.26,0l-7.68-3.65"/>
      </g>
    </g>
  </g>
</svg>