<?xml version="1.0" encoding="UTF-8"?>
<svg id="Warstwa_2" data-name="Warstwa 2" xmlns="http://www.w3.org/2000/svg" xmlns:xlink="http://www.w3.org/1999/xlink" viewBox="0 0 198.43 198.43">
  <defs>
    <style>
      .cls-1, .cls-2 {
        fill: none;
      }

      .cls-3 {
        fill: #313130;
      }

      .cls-3, .cls-2 {
        stroke: #fff;
        stroke-linecap: round;
        stroke-linejoin: round;
      }

      .cls-4 {
        fill: #c7d5c1;
      }

      .cls-5 {
        fill: #f0ddc9;
      }

      .cls-6 {
        clip-path: url(#clippath);
      }
    </style>
    <clipPath id="clippath">
      <rect class="cls-1" x="-541.42" y="246.21" width="273.8" height="197.5"/>
    </clipPath>
  </defs>
  <g id="Warstwa_1-2" data-name="Warstwa 1-2">
    <g id="Group_41746" data-name="Group 41746">
      <g class="cls-6">
        <g id="Mask_Group_10" data-name="Mask Group 10">
          <g id="Group_41628" data-name="Group 41628">
            <g id="Group_41627" data-name="Group 41627">
              <rect id="Rectangle_3390" data-name="Rectangle 3390" class="cls-1" x="-397.5" y="54.46" width="724.19" height="595.24" transform="translate(-80.11 1.06) rotate(-13)"/>
            </g>
            <path id="Path_46233" data-name="Path 46233" class="cls-1" d="M371.99,160.41L-157.53,653.45l-406.41-435.16L-34.42-274.75,371.99,160.41Z"/>
          </g>
        </g>
      </g>
    </g>
  </g>
  <g id="Group_41711" data-name="Group 41711">
    <path id="Path_46220" data-name="Path 46220" class="cls-5" d="M0,145.87c0-20.93,16.97-37.9,37.9-37.9s37.9,16.97,37.9,37.9H0Z"/>
    <path id="Path_46221" data-name="Path 46221" class="cls-4" d="M119.79,160.53c0,20.93,16.97,37.9,37.9,37.9s37.9-16.97,37.9-37.9h-75.8Z"/>
    <g id="YogaStretching_13" data-name="YogaStretching 13">
      <circle id="Ellipse_5113" data-name="Ellipse 5113" class="cls-3" cx="107.6" cy="87.37" r="16.48"/>
      <path id="Path_35935" data-name="Path 35935" class="cls-2" d="M76.05,193.57c1.97,2.94,5.59,4.29,9,3.37l22.52-6.15"/>
      <path id="Path_35936" data-name="Path 35936" class="cls-3" d="M111.32,174.71l23.16,6.32c4.41,1.13,7.07,5.62,5.94,10.03-1.13,4.41-5.62,7.07-10.03,5.94-.08-.02-.16-.04-.24-.07l-60.42-16.48c-4.39-1.21-6.97-5.74-5.76-10.13,1.21-4.39,5.74-6.97,10.13-5.76h0l14.31,3.9v-23.41c-4.81,5.55-11.91,8.59-19.25,8.24-11.06.46-21.07-6.53-24.43-17.08-1.21-4.39,1.37-8.93,5.77-10.14,4.39-1.21,8.93,1.37,10.14,5.77,0,.03.02.06.03.09,1.39,3.37,4.89,5.38,8.5,4.88,4.8,0,12.92-7.73,17.21-17.14,1.33-2.94,4.27-4.83,7.5-4.83h27.46c3.24,0,6.18,1.89,7.51,4.83,4.29,9.41,12.41,17.14,17.21,17.14,3.62.5,7.12-1.5,8.52-4.88,1.18-4.4,5.71-7.01,10.1-5.83,4.4,1.18,7.01,5.71,5.83,10.1-3.36,10.56-13.39,17.56-24.46,17.08-7.33.35-14.42-2.69-19.23-8.24v23.42l14.31-3.9c4.39-1.19,8.92,1.4,10.11,5.8.84,3.11-.2,6.42-2.67,8.48-2.97,2.48-10.44,4.18-10.44,4.18"/>
      <line id="Line_19479" data-name="Line 19479" class="cls-2" x1="88.38" y1="136.81" x2="88.38" y2="145.05"/>
      <line id="Line_19480" data-name="Line 19480" class="cls-2" x1="126.82" y1="136.81" x2="126.82" y2="145.05"/>
    </g>
  </g>
</svg>