<svg xmlns="http://www.w3.org/2000/svg" width="68" height="68" viewBox="0 0 68 68">
  <g id="Group_41782" data-name="Group 41782" transform="translate(-597 -31)">
    <g id="Ellipse_5118" data-name="Ellipse 5118" transform="translate(597 56)" fill="none" stroke="#313130" stroke-width="1">
      <circle cx="8.5" cy="8.5" r="8.5" stroke="none"/>
      <circle cx="8.5" cy="8.5" r="8" fill="none"/>
    </g>
    <g id="Ellipse_5119" data-name="Ellipse 5119" transform="translate(648 56)" fill="none" stroke="#313130" stroke-width="1">
      <circle cx="8.5" cy="8.5" r="8.5" stroke="none"/>
      <circle cx="8.5" cy="8.5" r="8" fill="none"/>
    </g>
    <g id="Ellipse_5120" data-name="Ellipse 5120" transform="translate(640 39)" fill="none" stroke="#313130" stroke-width="1">
      <circle cx="8.5" cy="8.5" r="8.5" stroke="none"/>
      <circle cx="8.5" cy="8.5" r="8" fill="none"/>
    </g>
    <g id="Ellipse_5121" data-name="Ellipse 5121" transform="translate(606 39)" fill="none" stroke="#313130" stroke-width="1">
      <circle cx="8.5" cy="8.5" r="8.5" stroke="none"/>
      <circle cx="8.5" cy="8.5" r="8" fill="none"/>
    </g>
    <g id="Ellipse_5122" data-name="Ellipse 5122" transform="translate(623 31)" fill="none" stroke="#313130" stroke-width="1">
      <circle cx="8.5" cy="8.5" r="8.5" stroke="none"/>
      <circle cx="8.5" cy="8.5" r="8" fill="none"/>
    </g>
    <g id="Group_41781" data-name="Group 41781" transform="translate(606 74)">
      <g id="Ellipse_5124" data-name="Ellipse 5124" transform="translate(34)" fill="none" stroke="#313130" stroke-width="1">
        <circle cx="8.5" cy="8.5" r="8.5" stroke="none"/>
        <circle cx="8.5" cy="8.5" r="8" fill="none"/>
      </g>
      <g id="Ellipse_5125" data-name="Ellipse 5125" fill="none" stroke="#313130" stroke-width="1">
        <circle cx="8.5" cy="8.5" r="8.5" stroke="none"/>
        <circle cx="8.5" cy="8.5" r="8" fill="none"/>
      </g>
      <g id="Ellipse_5123" data-name="Ellipse 5123" transform="translate(17 8)" fill="none" stroke="#313130" stroke-width="1">
        <circle cx="8.5" cy="8.5" r="8.5" stroke="none"/>
        <circle cx="8.5" cy="8.5" r="8" fill="none"/>
      </g>
    </g>
  </g>
</svg>
