<svg xmlns="http://www.w3.org/2000/svg" xmlns:xlink="http://www.w3.org/1999/xlink" width="208.82" height="3305.55" viewBox="0 0 208.82 3305.55">
  <defs>
    <clipPath id="clip-path">
      <rect id="Rectangle_3444" data-name="Rectangle 3444" width="166.332" height="160.736" fill="none" stroke="#f0ddc9" stroke-width="30"/>
    </clipPath>
    <clipPath id="clip-path-2">
      <rect id="Rectangle_3376" data-name="Rectangle 3376" width="176.698" height="140.61" fill="none" stroke="#707070" stroke-width="1"/>
    </clipPath>
    <clipPath id="clip-path-3">
      <rect id="Rectangle_3369" data-name="Rectangle 3369" width="227.572" height="154.462" fill="none"/>
    </clipPath>
    <clipPath id="clip-path-6">
      <rect id="Rectangle_3440" data-name="Rectangle 3440" width="99.275" height="137.629" transform="translate(0)" fill="none" stroke="#707070" stroke-width="1"/>
    </clipPath>
    <linearGradient id="linear-gradient" x1="-0.635" y1="1.39" x2="-0.629" y2="1.39" gradientUnits="objectBoundingBox">
      <stop offset="0" stop-color="#72a2dd"/>
      <stop offset="0.135" stop-color="#93b4dd"/>
      <stop offset="0.316" stop-color="#bac9df"/>
      <stop offset="0.496" stop-color="#d8d9df"/>
      <stop offset="0.672" stop-color="#ede5e0"/>
      <stop offset="0.842" stop-color="#faece0"/>
      <stop offset="1" stop-color="#ffefe1"/>
    </linearGradient>
    <clipPath id="clip-path-7">
      <rect id="Rectangle_3392" data-name="Rectangle 3392" width="125.057" height="173.37" transform="translate(0 0)" fill="none" stroke="#707070" stroke-width="1"/>
    </clipPath>
  </defs>
  <g id="Group_41814" data-name="Group 41814" transform="translate(-139.643 -43.958)">
    <g id="Group_41793" data-name="Group 41793" transform="translate(154.888 1830.5)">
      <g id="Group_41778" data-name="Group 41778" transform="translate(0.471 11)">
        <path id="Path_46139" data-name="Path 46139" d="M0,0V149.131H156.331V124.276H130.2V99.422H104.075V74.567H77.947V49.71H51.817V24.855H25.691V0Z" transform="translate(0 0)" fill="none" stroke="#fff" stroke-width="1"/>
      </g>
      <g id="Group_41792" data-name="Group 41792" transform="translate(0 0)">
        <g id="Group_41791" data-name="Group 41791" clip-path="url(#clip-path)">
          <path id="Path_46266" data-name="Path 46266" d="M161.013,154.376v-24.9H134.938v-24.9H108.863v-24.9H82.788v-24.9H56.712V29.9H30.639V5H5" transform="translate(-5 6.36)" fill="none" stroke="#f0ddc9" stroke-width="16"/>
        </g>
      </g>
    </g>
    <g id="Group_41813" data-name="Group 41813" transform="translate(215.098 1363.345)">
      <path id="Path_46234" data-name="Path 46234" d="M2.5,0,54.171,2.5,53.143,23.752a10.5,10.5,0,0,1-5.347-2.6,8.907,8.907,0,1,0-.566,13.766A10.16,10.16,0,0,1,52.7,32.943L51.671,54.171,30.443,53.144a10.158,10.158,0,0,0,1.973,5.469,8.9,8.9,0,0,1-7.075,14.254h-.074a9.184,9.184,0,0,1-1.409-.116A8.9,8.9,0,0,1,18.65,58.047a10.5,10.5,0,0,0,2.6-5.347L0,51.671Z" transform="translate(57.91 72.768) rotate(177)" fill="#313130" stroke="#fff" stroke-width="1"/>
    </g>
    <g id="Group_41806" data-name="Group 41806" transform="translate(-0.101 -83.545)">
      <g id="Group_41770" data-name="Group 41770" transform="translate(347.564 127.503) rotate(90)">
        <g id="Group_41505" data-name="Group 41505" transform="translate(2203.7 206.82) rotate(180)">
          <g id="Group_41503" data-name="Group 41503" transform="translate(1101.85) rotate(90)">
            <g id="Group_41566" data-name="Group 41566">
              <path id="Path_46138" data-name="Path 46138" d="M206.729,0C206.729,275.363,0,275.562,0,550.925S206.82,826.288,206.82,1101.85" fill="none" stroke="#fff" stroke-miterlimit="10" stroke-width="2"/>
            </g>
          </g>
        </g>
        <g id="Group_41808" data-name="Group 41808" transform="translate(1101.85 206.82) rotate(180)">
          <g id="Group_41503-2" data-name="Group 41503" transform="translate(1101.85) rotate(90)">
            <g id="Group_41566-2" data-name="Group 41566">
              <path id="Path_46138-2" data-name="Path 46138" d="M206.729,0C206.729,275.363,0,275.562,0,550.925S206.82,826.288,206.82,1101.85" fill="none" stroke="#fff" stroke-miterlimit="10" stroke-width="2"/>
            </g>
          </g>
        </g>
        <g id="Group_41805" data-name="Group 41805" transform="translate(3305.55 206.82) rotate(180)">
          <g id="Group_41503-3" data-name="Group 41503" transform="translate(1101.85) rotate(90)">
            <g id="Group_41566-3" data-name="Group 41566">
              <path id="Path_46138-3" data-name="Path 46138" d="M206.729,0C206.729,275.363,0,275.562,0,550.925S206.82,826.288,206.82,1101.85" fill="none" stroke="#fff" stroke-miterlimit="10" stroke-width="2"/>
            </g>
          </g>
        </g>
      </g>
    </g>
    <g id="Group_41810" data-name="Group 41810" transform="translate(170.765 1254.536)">
      <g id="Mask_Group_8" data-name="Mask Group 8" transform="translate(0 0)" clip-path="url(#clip-path-2)">
        <g id="Group_41615" data-name="Group 41615" transform="translate(27.026 0)">
          <g id="Group_41599" data-name="Group 41599" transform="translate(0)">
            <g id="Group_41598" data-name="Group 41598" clip-path="url(#clip-path-3)">
              <path id="Path_46175" data-name="Path 46175" d="M232.471,130.6s-18.331-2.66-54.275-22.1c-25.4-13.744-47.107-36.559-46.114-38.79s7.434,4.9,7.434,4.9-9.591-11.433-7.984-13.12,10.8,8,10.8,8-8.083-10.057-6.621-11.205,10.5,7.144,10.5,7.144-6.17-7.476-5-8.652c1.72-1.723,12.249,11.222,13.667,11.047,0,0-1.732-6.209,0-6.548,1.642-.322,3.844,8.733,9.391,10.776,45.764,16.852,80.894,19.307,80.894,19.307Z" transform="translate(-52.819 -21.246)" fill="#313130" stroke="#fff" stroke-width="1"/>
            </g>
          </g>
          <path id="Path_46177" data-name="Path 46177" d="M82.961,0,58.113.628a12.268,12.268,0,0,0,2.895,6.315A10.4,10.4,0,0,1,54.53,23.977a10.489,10.489,0,0,1-6.968-1.484A10.393,10.393,0,0,1,44.916,7.234,11.861,11.861,0,0,0,47.368.9l-24.82.628.628,24.82A11.864,11.864,0,0,1,16.842,23.9,10.4,10.4,0,0,0,.1,33.51a10.4,10.4,0,0,0,17.034,6.479,12.274,12.274,0,0,1,6.315-2.9h0l.628,24.848L84.49,60.412Z" transform="matrix(1, 0.017, -0.017, 1, 10.71, 16.676)" fill="#c7d5c1" stroke="#c7d5c1" stroke-width="1"/>
          <g id="Group_41609" data-name="Group 41609" transform="translate(0)">
            <g id="Group_41608" data-name="Group 41608" clip-path="url(#clip-path-3)">
              <path id="Path_46180" data-name="Path 46180" d="M234.175,163.164s-20.383-1.26-61.927-18.783c-29.365-12.387-55.627-35.13-54.775-37.686s8.686,4.587,8.686,4.587-11.75-11.533-10.166-13.557,12.711,7.638,12.711,7.638-9.949-10.183-8.466-11.6,12.293,6.727,12.293,6.727-7.573-7.552-6.409-8.971c1.7-2.074,14.646,11.019,16.184,10.677,0,0-2.563-6.634-.7-7.191,1.771-.528,5.152,9.182,11.46,10.834,52.055,13.631,90.864,12.877,90.864,12.877Z" transform="translate(-47.414 -40.208)" fill="#fff" stroke="#fff" stroke-width="1"/>
            </g>
          </g>
        </g>
      </g>
    </g>
    <g id="Group_41807" data-name="Group 41807" transform="translate(140.644 744.545)">
      <line id="Line_25168" data-name="Line 25168" y2="183.399" transform="translate(80.17)" fill="none" stroke="#fff" stroke-width="1"/>
      <line id="Line_25182" data-name="Line 25182" x1="160.34" y2="182.327" transform="translate(0.268 0.536)" fill="none" stroke="#fff" stroke-width="1"/>
      <g id="Group_41771" data-name="Group 41771" transform="translate(0 66.764)">
        <g id="Group_41741" data-name="Group 41741" transform="translate(0 24.668)">
          <line id="Line_25166" data-name="Line 25166" x1="82.359" fill="none" stroke="#fff" stroke-width="1"/>
          <line id="Line_25179" data-name="Line 25179" x1="82.359" transform="translate(78.196)" fill="none" stroke="#fff" stroke-width="1"/>
        </g>
        <g id="Path_46229" data-name="Path 46229" transform="translate(55.77)" fill="#f0ddc9">
          <path d="M 24.47446823120117 48.44886016845703 C 21.23771858215332 48.44886016845703 18.09804916381836 47.8150520324707 15.14267826080322 46.56504058837891 C 12.28786849975586 45.35756301879883 9.723888397216797 43.62884140014648 7.521958351135254 41.42691040039062 C 5.320018291473389 39.22498321533203 3.591308116912842 36.6610107421875 2.383828163146973 33.80621337890625 C 1.133808255195618 30.8508415222168 0.4999982416629791 27.711181640625 0.4999982416629791 24.47443199157715 C 0.4999982416629791 21.2376823425293 1.133808255195618 18.0980224609375 2.383828163146973 15.14266204833984 C 3.591308116912842 12.28786182403564 5.320018291473389 9.723881721496582 7.521958351135254 7.521952152252197 C 9.723888397216797 5.320022106170654 12.28786849975586 3.591301918029785 15.14267826080322 2.383821964263916 C 18.09804916381836 1.133811950683594 21.23771858215332 0.5000019669532776 24.47446823120117 0.5000019669532776 C 27.71121788024902 0.5000019669532776 30.85088729858398 1.133811950683594 33.80625915527344 2.383821964263916 C 36.66106796264648 3.591301918029785 39.22504806518555 5.320022106170654 41.42697906494141 7.521952152252197 C 43.6289176940918 9.723881721496582 45.35762786865234 12.28786182403564 46.56510925292969 15.14266204833984 C 47.81512832641602 18.0980224609375 48.44893646240234 21.2376823425293 48.44893646240234 24.47443199157715 C 48.44893646240234 27.711181640625 47.81512832641602 30.8508415222168 46.56510925292969 33.80621337890625 C 45.35762786865234 36.6610107421875 43.6289176940918 39.22498321533203 41.42697906494141 41.42691040039062 C 39.22504806518555 43.62884140014648 36.66106796264648 45.35756301879883 33.80625915527344 46.56504058837891 C 30.85088729858398 47.8150520324707 27.71121788024902 48.44886016845703 24.47446823120117 48.44886016845703 Z" stroke="none"/>
          <path d="M 24.47446823120117 1.000003814697266 C 21.30498886108398 1.000003814697266 18.23085784912109 1.620521545410156 15.33744812011719 2.844333648681641 C 12.5422477722168 4.026603698730469 10.03168869018555 5.719333648681641 7.875507354736328 7.875503540039062 C 5.719329833984375 10.03167343139648 4.026599884033203 12.54223251342773 2.844329833984375 15.33743286132812 C 1.620517730712891 18.23083114624023 1 21.30496215820312 1 24.47443199157715 C 1 27.64390182495117 1.620517730712891 30.71803283691406 2.844329833984375 33.61143112182617 C 4.026599884033203 36.40663146972656 5.719329833984375 38.91718292236328 7.875507354736328 41.07336044311523 C 10.03168869018555 43.22953033447266 12.5422477722168 44.92226409912109 15.33744812011719 46.10453033447266 C 18.23085784912109 47.32834243774414 21.30499839782715 47.94886016845703 24.47446823120117 47.94886016845703 C 27.6439380645752 47.94886016845703 30.71807861328125 47.32834243774414 33.61148834228516 46.10453033447266 C 36.40668869018555 44.92226409912109 38.9172477722168 43.22953033447266 41.07342910766602 41.07336044311523 C 43.22960662841797 38.91718292236328 44.92233657836914 36.40663146972656 46.10460662841797 33.61143112182617 C 47.32841873168945 30.71803283691406 47.94893646240234 27.64390182495117 47.94893646240234 24.47443199157715 C 47.94893646240234 21.30496215820312 47.32841873168945 18.23083114624023 46.10460662841797 15.33743286132812 C 44.92233657836914 12.54223251342773 43.22960662841797 10.03167343139648 41.07342910766602 7.875503540039062 C 38.9172477722168 5.719333648681641 36.40668869018555 4.026603698730469 33.61148834228516 2.844333648681641 C 30.71807861328125 1.620521545410156 27.64394760131836 1.000003814697266 24.47446823120117 1.000003814697266 M 24.47446823120117 3.814697265625e-06 C 37.99134826660156 3.814697265625e-06 48.94893646240234 10.95757293701172 48.94893646240234 24.47443199157715 C 48.94893646240234 37.99128341674805 37.99134826660156 48.94886016845703 24.47446823120117 48.94886016845703 C 10.95758819580078 48.94886016845703 0 37.99128341674805 0 24.47443199157715 C 0 10.95757293701172 10.95758819580078 3.814697265625e-06 24.47446823120117 3.814697265625e-06 Z" stroke="none" fill="#f0ddc9"/>
        </g>
      </g>
    </g>
    <g id="Group_41809" data-name="Group 41809" transform="translate(170.58 297.991)">
      <g id="Mask_Group_13" data-name="Mask Group 13" transform="translate(0 99.275) rotate(-90)" clip-path="url(#clip-path-6)">
        <g id="Group_41774" data-name="Group 41774" transform="translate(48.641 -421.088) rotate(47)">
          <g id="Group_41773" data-name="Group 41773" transform="translate(0 0)">
            <path id="Path_46253" data-name="Path 46253" d="M59.391,32.635c28.31.4,37.926,5.982,39.076,5.023,1.209-1.011-2.836-5.108-2.836-5.108,1.036-.748,14.9,4.806,15.5,2.721.41-1.425-7.663-4.593-7.663-4.593s10.677,2.567,11.327,1.041-10.044-5.883-10.044-5.883,11.4,3.592,11.932,1.583-11.941-6.789-11.941-6.789,8.139,2.783,7.951.613c-.127-1.464-23.04-10.15-42.246-14.486C13.321-6.143,0,3.395,0,3.395L5.523,20.606,7.992,37.7S23,32.126,59.391,32.635" transform="translate(336.273 245.84) rotate(60)" fill="#fff" stroke="#fff" stroke-width="1"/>
            <rect id="Rectangle_3439" data-name="Rectangle 3439" width="364.023" height="299.204" transform="translate(149.602 0) rotate(30)" fill="none"/>
          </g>
          <path id="Path_46255" data-name="Path 46255" d="M0,0Z" transform="matrix(-0.054, 0.999, -0.999, -0.054, 110.15, 223.331)" stroke="#707070" stroke-width="1" fill="url(#linear-gradient)"/>
          <path id="Path_46256" data-name="Path 46256" d="M0,0,363.687.275l.226,299.3L.226,299.3Z" transform="translate(16.95 151.362)" fill="none"/>
        </g>
      </g>
      <g id="Group_41789" data-name="Group 41789" transform="translate(55.596 99.275)">
        <path id="Path_46264" data-name="Path 46264" d="M22378.992,2097.507l24.7,7.441,25.123-7.441-25.123-5.909Z" transform="translate(-22378.41 -2091.598)" fill="none" stroke="#fff" stroke-width="1"/>
        <path id="Path_46265" data-name="Path 46265" d="M22377.953,2097.86v30.311l24.754,9.056,26.316-9.056V2097.86" transform="translate(-22377.953 -2091.972)" fill="none" stroke="#fff" stroke-width="1"/>
        <line id="Line_25183" data-name="Line 25183" y2="31.968" transform="translate(24.964 13.071)" fill="none" stroke="#fff" stroke-width="1"/>
      </g>
      <g id="Group_41790" data-name="Group 41790" transform="translate(112.962 32.91)">
        <path id="Path_46265-2" data-name="Path 46265" d="M22377.953,2097.86v37.252l30.426,11.13,32.34-11.13V2097.86" transform="translate(-22377.479 -2090.877)" fill="#c7d5c1" stroke="#c7d5c1" stroke-width="1"/>
        <line id="Line_25183-2" data-name="Line 25183" y2="40.519" transform="translate(31.155 15.812)" fill="none" stroke="#313130" stroke-width="1"/>
        <path id="Path_46264-2" data-name="Path 46264" d="M22378.109,2099.08l30.969,9.133,32.953-9.133-32.953-7.01Z" transform="translate(-22378.109 -2092.07)" fill="#c7d5c1" stroke="#313130" stroke-width="1"/>
      </g>
    </g>
    <g id="Group_41812" data-name="Group 41812" transform="translate(174.092 2483.281)">
      <g id="Group_41563" data-name="Group 41563" transform="translate(64.463 -17)">
        <line id="Line_25105" data-name="Line 25105" x2="24.171" y2="23.885" transform="translate(39.912 43.488)" fill="none" stroke="#fff" stroke-width="1"/>
        <g id="Path_46199" data-name="Path 46199" transform="translate(0 0)" fill="#c7d5c1">
          <path d="M 24.47465133666992 48.44931793212891 C 21.23787117004395 48.44931793212891 18.09818077087402 47.81549835205078 15.14279174804688 46.56547546386719 C 12.28796100616455 45.35798645019531 9.723960876464844 43.62925720214844 7.522011280059814 41.42729568481445 C 5.320061206817627 39.22534561157227 3.591331243515015 36.66134643554688 2.383841276168823 33.80652618408203 C 1.133821368217468 30.85112762451172 0.5000013113021851 27.7114372253418 0.5000013113021851 24.47465705871582 C 0.5000013113021851 21.23787689208984 1.133821368217468 18.09818649291992 2.383841276168823 15.14278697967529 C 3.591331243515015 12.28796672821045 5.320061206817627 9.723966598510742 7.522011280059814 7.522017002105713 C 9.723960876464844 5.320056915283203 12.28796100616455 3.591326951980591 15.14279174804688 2.383836984634399 C 18.09818077087402 1.133817076683044 21.23787117004395 0.4999970495700836 24.47465133666992 0.4999970495700836 C 27.7114315032959 0.4999970495700836 30.85112190246582 1.133817076683044 33.80651092529297 2.383836984634399 C 36.66134262084961 3.591326951980591 39.225341796875 5.320056915283203 41.42729187011719 7.522017002105713 C 43.62924194335938 9.723966598510742 45.35797119140625 12.28796672821045 46.56546020507812 15.14278697967529 C 47.81548309326172 18.09818649291992 48.44930267333984 21.23787689208984 48.44930267333984 24.47465705871582 C 48.44930267333984 27.7114372253418 47.81548309326172 30.85112762451172 46.56546020507812 33.80652618408203 C 45.35797119140625 36.66134643554688 43.62924194335938 39.22534561157227 41.42729187011719 41.42729568481445 C 39.225341796875 43.62925720214844 36.66134262084961 45.35798645019531 33.80651092529297 46.56547546386719 C 30.85112190246582 47.81549835205078 27.7114315032959 48.44931793212891 24.47465133666992 48.44931793212891 Z" stroke="none"/>
          <path d="M 24.47465133666992 0.9999961853027344 C 21.30515098571777 0.9999961853027344 18.23099136352539 1.620525360107422 15.33756256103516 2.844337463378906 C 12.54234313964844 4.026626586914062 10.03176116943359 5.719367980957031 7.875560760498047 7.875568389892578 C 5.719371795654297 10.03175735473633 4.026622772216797 12.54233551025391 2.844341278076172 15.33756637573242 C 1.620532989501953 18.23099708557129 1 21.30515670776367 1 24.47465705871582 C 1 27.64415740966797 1.620532989501953 30.71831703186035 2.844341278076172 33.61174774169922 C 4.026622772216797 36.40697479248047 5.719371795654297 38.91755676269531 7.875560760498047 41.07374572753906 C 10.03176116943359 43.22994613647461 12.54234313964844 44.92268753051758 15.33756256103516 46.10497665405273 C 18.23099136352539 47.32878875732422 21.30515098571777 47.94931793212891 24.47465133666992 47.94931793212891 C 27.64415168762207 47.94931793212891 30.71831130981445 47.32878875732422 33.61173248291016 46.10497665405273 C 36.40695953369141 44.92268753051758 38.91754150390625 43.22994613647461 41.07373046875 41.07374572753906 C 43.22993087768555 38.91755676269531 44.92267227172852 36.40697479248047 46.10496139526367 33.61174774169922 C 47.32876968383789 30.71831703186035 47.94930267333984 27.64415740966797 47.94930267333984 24.47465705871582 C 47.94930267333984 21.30515670776367 47.32876968383789 18.23099708557129 46.10496139526367 15.33756637573242 C 44.92267227172852 12.54233551025391 43.22993087768555 10.03175735473633 41.07373046875 7.875568389892578 C 38.91754150390625 5.719367980957031 36.40695953369141 4.026626586914062 33.61173248291016 2.844337463378906 C 30.71831130981445 1.620525360107422 27.64415168762207 0.9999961853027344 24.47465133666992 0.9999961853027344 M 24.47465133666992 -3.814697265625e-06 C 37.99162292480469 -3.814697265625e-06 48.94930267333984 10.95767593383789 48.94930267333984 24.47465705871582 C 48.94930267333984 37.99163818359375 37.99162292480469 48.94931793212891 24.47465133666992 48.94931793212891 C 10.95767211914062 48.94931793212891 0 37.99163818359375 0 24.47465705871582 C 0 10.95767593383789 10.95767211914062 -3.814697265625e-06 24.47465133666992 -3.814697265625e-06 Z" stroke="none" fill="#c7d5c1"/>
        </g>
        <g id="Path_46267" data-name="Path 46267" transform="translate(8.58 8.58)" fill="none">
          <path d="M15.725,0A15.725,15.725,0,1,0,31.45,15.725,15.725,15.725,0,0,0,15.725,0Z" stroke="none"/>
          <path d="M 15.72490692138672 0.9999980926513672 C 11.7917366027832 0.9999980926513672 8.093986511230469 2.531658172607422 5.312826156616211 5.312828063964844 C 2.531656265258789 8.093988418579102 0.9999961853027344 11.79173851013184 0.9999961853027344 15.72490882873535 C 0.9999961853027344 19.65807914733887 2.531656265258789 23.3558292388916 5.312826156616211 26.13698959350586 C 8.093986511230469 28.91815948486328 11.7917366027832 30.44981956481934 15.72490692138672 30.44981956481934 C 19.65806579589844 30.44981956481934 23.35581588745117 28.91815948486328 26.13698577880859 26.13698959350586 C 28.91815757751465 23.3558292388916 30.4498176574707 19.65807914733887 30.4498176574707 15.72490882873535 C 30.4498176574707 11.79173851013184 28.91815757751465 8.093988418579102 26.13698577880859 5.312828063964844 C 23.35581588745117 2.531658172607422 19.65806579589844 0.9999980926513672 15.72490692138672 0.9999980926513672 M 15.72490692138672 -1.9073486328125e-06 C 24.40952682495117 -1.9073486328125e-06 31.4498176574707 7.040279388427734 31.4498176574707 15.72490882873535 C 31.4498176574707 24.40953826904297 24.40952682495117 31.44981956481934 15.72490692138672 31.44981956481934 C 7.040277481079102 31.44981956481934 -3.814697265625e-06 24.40953826904297 -3.814697265625e-06 15.72490882873535 C -3.814697265625e-06 7.040279388427734 7.040277481079102 -1.9073486328125e-06 15.72490692138672 -1.9073486328125e-06 Z" stroke="none" fill="#313130"/>
        </g>
      </g>
      <g id="Mask_Group_10" data-name="Mask Group 10" transform="translate(173.37 23.923) rotate(90)" clip-path="url(#clip-path-7)">
        <g id="Group_41628" data-name="Group 41628" transform="translate(70.556 -550.648) rotate(47)">
          <g id="Group_41627" data-name="Group 41627" transform="translate(0 0)">
            <path id="Path_46195" data-name="Path 46195" d="M65.87,36.195c31.4.439,42.063,6.635,43.339,5.571,1.34-1.121-3.145-5.665-3.145-5.665,1.149-.829,16.522,5.33,17.19,3.017.455-1.58-8.5-5.094-8.5-5.094s11.842,2.848,12.563,1.154-11.139-6.525-11.139-6.525,12.647,3.984,13.234,1.755-13.244-7.529-13.244-7.529,9.027,3.086,8.819.68C124.846,21.935,99.434,12.3,78.133,7.493,14.774-6.813,0,3.765,0,3.765L6.125,22.854,8.864,41.812S25.508,35.63,65.87,36.195" transform="translate(431.718 337.367) rotate(60)" fill="#fff" stroke="#fff" stroke-width="1"/>
            <rect id="Rectangle_3390" data-name="Rectangle 3390" width="458.559" height="376.905" transform="translate(188.453 0) rotate(30)" fill="none"/>
            <path id="Path_46196" data-name="Path 46196" d="M73.476,31.3c28.423,13.334,40.735,12.43,41.414,13.945.712,1.594-5.318,3.715-5.318,3.715.669,1.247,17.2,2.435,16.782,4.805-.285,1.619-9.881.861-9.881.861s11.9,2.619,11.8,4.456-12.883.992-12.883.992,13.121,1.95,12.67,4.209-15.217.974-15.217.974,9.472,1.174,8.228,3.245c-.84,1.4-27.922-1.059-49.188-6.052C8.634,47.6,0,31.637,0,31.637L13.9,17.164,16.382,0S36.939,14.16,73.476,31.3" transform="translate(505.079 553.899) rotate(-135)" fill="#313130" stroke="#fff" stroke-width="1"/>
          </g>
          <path id="Path_46197" data-name="Path 46197" d="M0,0Z" transform="matrix(-0.054, 0.999, -0.999, -0.054, 138.756, 281.328)" stroke="#707070" stroke-width="1" fill="url(#linear-gradient)"/>
          <path id="Path_46233" data-name="Path 46233" d="M0,0,458.135.346l.285,377.026L.285,377.026Z" transform="translate(21.351 190.67)" fill="none"/>
        </g>
      </g>
    </g>
    <g id="Group_41811" data-name="Group 41811" transform="translate(187.753 3032.959)">
      <path id="Path_3949" data-name="Path 3949" d="M581.313,157.339H558.736l-13.546,13.546V157.339c-34.1,0-36.029.354-36.123,0V116.7c.33.088,72.17,0,72.247,0C581.313,116.7,581.459,157.592,581.313,157.339Z" transform="translate(-457.379 -63.317)" fill="none" stroke="#fff" stroke-linecap="round" stroke-linejoin="round" stroke-width="1"/>
      <g id="Group_41803" data-name="Group 41803" transform="translate(0)">
        <path id="Path_46268" data-name="Path 46268" d="M509.131,157.339h22.577l13.546,13.546V157.339c34.1,0,36.029.354,36.123,0V116.7c-.33.088-72.17,0-72.247,0C509.131,116.7,508.985,157.592,509.131,157.339Z" transform="translate(-509.066 -116.7)" fill="#f0ddc9"/>
        <g id="Group_41802" data-name="Group 41802" transform="translate(9.485 11.002)">
          <g id="Component_1_4" data-name="Component 1 – 4">
            <line id="Line_25184" data-name="Line 25184" x2="53.493" fill="none" stroke="#fff" stroke-width="1"/>
          </g>
          <g id="Component_1_5" data-name="Component 1 – 5" transform="translate(0 9.095)">
            <line id="Line_25184-2" data-name="Line 25184" x2="53.493" fill="none" stroke="#fff" stroke-width="1"/>
          </g>
          <g id="Component_1_6" data-name="Component 1 – 6" transform="translate(0 18.19)">
            <line id="Line_25184-3" data-name="Line 25184" x2="53.493" fill="none" stroke="#fff" stroke-width="1"/>
          </g>
        </g>
      </g>
    </g>
  </g>
</svg>
