<svg xmlns="http://www.w3.org/2000/svg" xmlns:xlink="http://www.w3.org/1999/xlink" width="170.399" height="3305.55" viewBox="0 0 170.399 3305.55">
  <defs>
    <clipPath id="clip-path">
      <rect id="Rectangle_3444" data-name="Rectangle 3444" width="93.508" height="90.364" fill="none" stroke="#f0ddc9" stroke-width="30"/>
    </clipPath>
    <clipPath id="clip-path-2">
      <rect id="Rectangle_3376" data-name="Rectangle 3376" width="104.9" height="83.477" fill="none" stroke="#707070" stroke-width="1"/>
    </clipPath>
    <clipPath id="clip-path-3">
      <rect id="Rectangle_3369" data-name="Rectangle 3369" width="135.103" height="91.701" fill="none"/>
    </clipPath>
    <clipPath id="clip-path-6">
      <rect id="Rectangle_3440" data-name="Rectangle 3440" width="58.938" height="81.706" transform="translate(0)" fill="none" stroke="#707070" stroke-width="1"/>
    </clipPath>
    <linearGradient id="linear-gradient" x1="-0.635" y1="1.39" x2="-0.629" y2="1.39" gradientUnits="objectBoundingBox">
      <stop offset="0" stop-color="#72a2dd"/>
      <stop offset="0.135" stop-color="#93b4dd"/>
      <stop offset="0.316" stop-color="#bac9df"/>
      <stop offset="0.496" stop-color="#d8d9df"/>
      <stop offset="0.672" stop-color="#ede5e0"/>
      <stop offset="0.842" stop-color="#faece0"/>
      <stop offset="1" stop-color="#ffefe1"/>
    </linearGradient>
    <clipPath id="clip-path-7">
      <rect id="Rectangle_3392" data-name="Rectangle 3392" width="74.244" height="102.925" transform="translate(0 0)" fill="none" stroke="#707070" stroke-width="1"/>
    </clipPath>
  </defs>
  <g id="Group_41814" data-name="Group 41814" transform="translate(-139.643 -43.958)">
    <g id="Group_41793" data-name="Group 41793" transform="translate(154.642 1869.91)">
      <g id="Group_41778" data-name="Group 41778" transform="translate(0.558 6.09)">
        <path id="Path_46139" data-name="Path 46139" d="M0,0v83.84H87.886V69.866H73.2V55.893H58.509V41.92H43.82V27.946H29.13V13.973H14.443V0Z" transform="translate(0 0)" fill="none" stroke="#fff" stroke-width="1"/>
      </g>
      <g id="Group_41792" data-name="Group 41792" transform="translate(0 0)">
        <g id="Group_41791" data-name="Group 41791" clip-path="url(#clip-path)">
          <path id="Path_46266" data-name="Path 46266" d="M92.707,88.977v-14H78.048v-14H63.39v-14H48.731v-14H34.071V19H19.414V5H5" transform="translate(-5 1.387)" fill="none" stroke="#f0ddc9" stroke-width="8"/>
        </g>
      </g>
    </g>
    <g id="Group_41813" data-name="Group 41813" transform="translate(239.402 1322.498)">
      <path id="Path_46234" data-name="Path 46234" d="M1.484,0,32.16,1.484,31.549,14.1a6.234,6.234,0,0,1-3.175-1.545,5.288,5.288,0,1,0-.336,8.172,6.032,6.032,0,0,1,3.247-1.171l-.61,12.6-12.6-.61A6.031,6.031,0,0,0,19.244,34.8a5.283,5.283,0,0,1-4.2,8.463H15a5.452,5.452,0,0,1-.837-.069,5.284,5.284,0,0,1-3.092-8.73,6.232,6.232,0,0,0,1.545-3.175L0,30.676Z" transform="translate(34.379 43.201) rotate(177)" fill="#313130" stroke="#fff" stroke-width="1"/>
    </g>
    <g id="Group_41806" data-name="Group 41806" transform="translate(-0.101 -83.545)">
      <g id="Group_41770" data-name="Group 41770" transform="translate(309.143 127.503) rotate(90)">
        <g id="Group_41505" data-name="Group 41505" transform="translate(2203.7 168.399) rotate(180)">
          <g id="Group_41503" data-name="Group 41503" transform="translate(1101.85) rotate(90)">
            <g id="Group_41566" data-name="Group 41566">
              <path id="Path_46138" data-name="Path 46138" d="M168.325,0C168.325,275.363,0,275.562,0,550.925S168.4,826.288,168.4,1101.85" fill="none" stroke="#fff" stroke-miterlimit="10" stroke-width="2"/>
            </g>
          </g>
        </g>
        <g id="Group_41808" data-name="Group 41808" transform="translate(1101.85 168.399) rotate(180)">
          <g id="Group_41503-2" data-name="Group 41503" transform="translate(1101.85) rotate(90)">
            <g id="Group_41566-2" data-name="Group 41566">
              <path id="Path_46138-2" data-name="Path 46138" d="M168.325,0C168.325,275.363,0,275.562,0,550.925S168.4,826.288,168.4,1101.85" fill="none" stroke="#fff" stroke-miterlimit="10" stroke-width="2"/>
            </g>
          </g>
        </g>
        <g id="Group_41805" data-name="Group 41805" transform="translate(3305.55 168.399) rotate(180)">
          <g id="Group_41503-3" data-name="Group 41503" transform="translate(1101.85) rotate(90)">
            <g id="Group_41566-3" data-name="Group 41566">
              <path id="Path_46138-3" data-name="Path 46138" d="M168.325,0C168.325,275.363,0,275.562,0,550.925S168.4,826.288,168.4,1101.85" fill="none" stroke="#fff" stroke-miterlimit="10" stroke-width="2"/>
            </g>
          </g>
        </g>
      </g>
    </g>
    <g id="Group_41810" data-name="Group 41810" transform="translate(204.141 1247.901)">
      <g id="Mask_Group_8" data-name="Mask Group 8" transform="translate(0.001 0)" clip-path="url(#clip-path-2)">
        <g id="Group_41615" data-name="Group 41615" transform="translate(16.044 0)">
          <g id="Group_41599" data-name="Group 41599" transform="translate(0)">
            <g id="Group_41598" data-name="Group 41598" clip-path="url(#clip-path-3)">
              <path id="Path_46175" data-name="Path 46175" d="M191.383,100.543S180.5,98.964,159.161,87.421c-15.082-8.159-27.966-21.7-27.376-23.029S136.2,67.3,136.2,67.3s-5.694-6.788-4.74-7.789,6.41,4.751,6.41,4.751-4.8-5.971-3.931-6.652,6.234,4.241,6.234,4.241-3.663-4.438-2.966-5.137c1.021-1.023,7.272,6.662,8.114,6.559,0,0-1.028-3.686,0-3.887.975-.191,2.282,5.185,5.575,6.4,27.169,10,48.025,11.462,48.025,11.462Z" transform="translate(-84.729 -35.619)" fill="#313130" stroke="#fff" stroke-width="1"/>
            </g>
          </g>
          <path id="Path_46177" data-name="Path 46177" d="M49.252,0,34.5.373a7.283,7.283,0,0,0,1.719,3.749,6.172,6.172,0,0,1-3.846,10.113,6.227,6.227,0,0,1-4.137-.881,6.17,6.17,0,0,1-1.571-9.059A7.041,7.041,0,0,0,28.121.534L13.386.907l.373,14.735A7.043,7.043,0,0,1,10,14.187a6.173,6.173,0,0,0-9.94,5.707A6.172,6.172,0,0,0,10.171,23.74a7.287,7.287,0,0,1,3.749-1.719h0l.373,14.752,35.865-.908Z" transform="matrix(1, 0.017, -0.017, 1, 6.358, 9.9)" fill="#c7d5c1" stroke="#c7d5c1" stroke-width="1"/>
          <g id="Group_41609" data-name="Group 41609" transform="translate(0)">
            <g id="Group_41608" data-name="Group 41608" clip-path="url(#clip-path-3)">
              <path id="Path_46180" data-name="Path 46180" d="M186.1,133.962s-12.1-.748-36.764-11.151c-17.433-7.354-33.024-20.856-32.519-22.374s5.157,2.723,5.157,2.723-6.976-6.847-6.035-8.048,7.546,4.535,7.546,4.535-5.907-6.045-5.026-6.886,7.3,3.994,7.3,3.994-4.5-4.484-3.8-5.326c1.012-1.231,8.7,6.542,9.608,6.339,0,0-1.522-3.939-.415-4.269,1.051-.313,3.058,5.451,6.8,6.432,30.9,8.092,53.943,7.645,53.943,7.645Z" transform="translate(-75.22 -60.966)" fill="#fff" stroke="#fff" stroke-width="1"/>
            </g>
          </g>
        </g>
      </g>
    </g>
    <g id="Group_41807" data-name="Group 41807" transform="translate(153.642 776.719)">
      <line id="Line_25168" data-name="Line 25168" y2="108.88" transform="translate(47.595)" fill="none" stroke="#fff" stroke-width="1"/>
      <line id="Line_25182" data-name="Line 25182" x1="95.189" y2="108.243" transform="translate(0.16 0.318)" fill="none" stroke="#fff" stroke-width="1"/>
      <g id="Group_41771" data-name="Group 41771" transform="translate(0.001 39.636)">
        <g id="Group_41741" data-name="Group 41741" transform="translate(0 14.645)">
          <line id="Line_25166" data-name="Line 25166" x1="48.894" fill="none" stroke="#fff" stroke-width="1"/>
          <line id="Line_25179" data-name="Line 25179" x1="48.894" transform="translate(46.423)" fill="none" stroke="#fff" stroke-width="1"/>
        </g>
        <g id="Path_46229" data-name="Path 46229" transform="translate(33.109)" fill="#f0ddc9">
          <path d="M 14.52978324890137 28.55988311767578 C 10.78229331970215 28.55988311767578 7.259103298187256 27.10051345825195 4.609233379364014 24.45061302185059 C 1.95935320854187 21.80070304870605 0.5000032782554626 18.2774829864502 0.5000032782554626 14.52994251251221 C 0.5000032782554626 10.78240203857422 1.95935320854187 7.259182453155518 4.609233379364014 4.609272480010986 C 7.259103298187256 1.959372520446777 10.78229331970215 0.5000025033950806 14.52978324890137 0.5000025033950806 C 18.27727317810059 0.5000025033950806 21.80046272277832 1.959372520446777 24.45033264160156 4.609272480010986 C 27.1002140045166 7.259182453155518 28.55956268310547 10.78240203857422 28.55956268310547 14.52994251251221 C 28.55956268310547 18.2774829864502 27.1002140045166 21.80070304870605 24.45033264160156 24.45061302185059 C 21.80046272277832 27.10051345825195 18.27727317810059 28.55988311767578 14.52978324890137 28.55988311767578 Z" stroke="none"/>
          <path d="M 14.52978324890137 1.000001907348633 C 10.91584396362305 1.000001907348633 7.518222808837891 2.40736198425293 4.962783813476562 4.962821960449219 C 2.407342910766602 7.518293380737305 1.000003814697266 10.91596221923828 1.000003814697266 14.52994251251221 C 1.000003814697266 18.14392280578613 2.407342910766602 21.54159164428711 4.962783813476562 24.0970630645752 C 7.518222808837891 26.65252304077148 10.91584396362305 28.05988311767578 14.52978324890137 28.05988311767578 C 18.14372253417969 28.05988311767578 21.54134368896484 26.65252304077148 24.09678268432617 24.0970630645752 C 26.65222358703613 21.54159164428711 28.05956268310547 18.14392280578613 28.05956268310547 14.52994251251221 C 28.05956268310547 10.91596221923828 26.65222358703613 7.518293380737305 24.09678268432617 4.962821960449219 C 21.54134368896484 2.40736198425293 18.14372253417969 1.000001907348633 14.52978324890137 1.000001907348633 M 14.52978324890137 1.9073486328125e-06 C 22.55436325073242 1.9073486328125e-06 29.05956268310547 6.505271911621094 29.05956268310547 14.52994251251221 C 29.05956268310547 22.55461311340332 22.55436325073242 29.05988311767578 14.52978324890137 29.05988311767578 C 6.505203247070312 29.05988311767578 3.814697265625e-06 22.55461311340332 3.814697265625e-06 14.52994251251221 C 3.814697265625e-06 6.505271911621094 6.505203247070312 1.9073486328125e-06 14.52978324890137 1.9073486328125e-06 Z" stroke="none" fill="#f0ddc9"/>
        </g>
      </g>
    </g>
    <g id="Group_41809" data-name="Group 41809" transform="translate(204.028 287.991)">
      <g id="Mask_Group_13" data-name="Mask Group 13" transform="translate(0.001 58.938) rotate(-90)" clip-path="url(#clip-path-6)">
        <g id="Group_41774" data-name="Group 41774" transform="translate(28.877 -249.988) rotate(47)">
          <g id="Group_41773" data-name="Group 41773" transform="translate(0 0)">
            <path id="Path_46253" data-name="Path 46253" d="M35.259,19.375c16.807.235,22.515,3.552,23.2,2.982.717-.6-1.684-3.033-1.684-3.033.615-.444,8.844,2.853,9.2,1.615.244-.846-4.55-2.727-4.55-2.727s6.339,1.524,6.725.618-5.963-3.493-5.963-3.493,6.77,2.132,7.084.94-7.089-4.03-7.089-4.03,4.832,1.652,4.72.364c-.075-.869-13.678-6.026-25.08-8.6C7.908-3.647,0,2.015,0,2.015L3.279,12.233,4.745,22.381s8.909-3.309,30.514-3.006" transform="translate(199.636 145.948) rotate(60)" fill="#fff" stroke="#fff" stroke-width="1"/>
            <rect id="Rectangle_3439" data-name="Rectangle 3439" width="216.11" height="177.63" transform="translate(88.815 0) rotate(30)" fill="none"/>
          </g>
          <path id="Path_46255" data-name="Path 46255" d="M0,0Z" transform="matrix(-0.054, 0.999, -0.999, -0.054, 65.393, 132.586)" stroke="#707070" stroke-width="1" fill="url(#linear-gradient)"/>
          <path id="Path_46256" data-name="Path 46256" d="M0,0,215.912.162l.133,177.687L.133,177.687Z" transform="translate(10.062 89.86)" fill="none"/>
        </g>
      </g>
      <g id="Group_41789" data-name="Group 41789" transform="translate(33.006 58.938)">
        <path id="Path_46264" data-name="Path 46264" d="M22379,2095.106l14.662,4.417,14.916-4.417-14.916-3.508Z" transform="translate(-22378.65 -2091.598)" fill="none" stroke="#fff" stroke-width="1"/>
        <path id="Path_46265" data-name="Path 46265" d="M22377.953,2097.86v18l14.693,5.376,15.625-5.376v-18" transform="translate(-22377.953 -2094.364)" fill="none" stroke="#fff" stroke-width="1"/>
        <line id="Line_25183" data-name="Line 25183" y2="18.978" transform="translate(14.82 7.76)" fill="none" stroke="#fff" stroke-width="1"/>
      </g>
      <g id="Group_41790" data-name="Group 41790" transform="translate(67.063 19.538)">
        <path id="Path_46265-2" data-name="Path 46265" d="M22377.953,2097.86v22.116l18.064,6.608,19.2-6.608V2097.86" transform="translate(-22377.672 -2093.714)" fill="#c7d5c1" stroke="#c7d5c1" stroke-width="1"/>
        <line id="Line_25183-2" data-name="Line 25183" y2="24.055" transform="translate(18.496 9.387)" fill="none" stroke="#313130" stroke-width="1"/>
        <path id="Path_46264-2" data-name="Path 46264" d="M22378.109,2096.231l18.387,5.422,19.564-5.422-19.564-4.162Z" transform="translate(-22378.109 -2092.07)" fill="#c7d5c1" stroke="#313130" stroke-width="1"/>
      </g>
    </g>
    <g id="Group_41812" data-name="Group 41812" transform="translate(201.396 2418.64)">
      <g id="Group_41563" data-name="Group 41563" transform="translate(56.88 0)">
        <line id="Line_25105" data-name="Line 25105" x2="14.35" y2="14.18" transform="translate(23.694 25.818)" fill="none" stroke="#fff" stroke-width="1"/>
        <g id="Path_46199" data-name="Path 46199" transform="translate(0 0)" fill="#c7d5c1">
          <path d="M 14.52989196777344 28.56015777587891 C 10.78237152099609 28.56015777587891 7.259161949157715 27.10077667236328 4.609261989593506 24.45084762573242 C 1.959361910820007 21.80090713500977 0.5000019669532776 18.27764701843262 0.5000019669532776 14.53007698059082 C 0.5000019669532776 10.78250694274902 1.959361910820007 7.259246826171875 4.609261989593506 4.609306812286377 C 7.259161949157715 1.959376931190491 10.78237152099609 0.4999969899654388 14.52989196777344 0.4999969899654388 C 18.27741241455078 0.4999969899654388 21.80062103271484 1.959376931190491 24.45052146911621 4.609306812286377 C 27.10042190551758 7.259246826171875 28.55978202819824 10.78250694274902 28.55978202819824 14.53007698059082 C 28.55978202819824 18.27764701843262 27.10042190551758 21.80090713500977 24.45052146911621 24.45084762573242 C 21.80062103271484 27.10077667236328 18.27741241455078 28.56015777587891 14.52989196777344 28.56015777587891 Z" stroke="none"/>
          <path d="M 14.52989196777344 0.9999961853027344 C 10.91593170166016 0.9999961853027344 7.518272399902344 2.407367706298828 4.962821960449219 4.962856292724609 C 2.40736198425293 7.518356323242188 1.000001907348633 10.91605758666992 1.000001907348633 14.53007698059082 C 1.000001907348633 18.14409637451172 2.40736198425293 21.54179763793945 4.962821960449219 24.09729766845703 C 7.518272399902344 26.65278625488281 10.91593170166016 28.06015777587891 14.52989196777344 28.06015777587891 C 18.14385223388672 28.06015777587891 21.54151153564453 26.65278625488281 24.09696197509766 24.09729766845703 C 26.65242195129395 21.54179763793945 28.05978202819824 18.14409637451172 28.05978202819824 14.53007698059082 C 28.05978202819824 10.91605758666992 26.65242195129395 7.518356323242188 24.09696197509766 4.962856292724609 C 21.54151153564453 2.407367706298828 18.14385223388672 0.9999961853027344 14.52989196777344 0.9999961853027344 M 14.52989196777344 -3.814697265625e-06 C 22.55453109741211 -3.814697265625e-06 29.05978202819824 6.505336761474609 29.05978202819824 14.53007698059082 C 29.05978202819824 22.55481719970703 22.55453109741211 29.06015777587891 14.52989196777344 29.06015777587891 C 6.505252838134766 29.06015777587891 1.9073486328125e-06 22.55481719970703 1.9073486328125e-06 14.53007698059082 C 1.9073486328125e-06 6.505336761474609 6.505252838134766 -3.814697265625e-06 14.52989196777344 -3.814697265625e-06 Z" stroke="none" fill="#c7d5c1"/>
        </g>
        <g id="Path_46267" data-name="Path 46267" transform="translate(5.094 5.094)" fill="none">
          <path d="M9.335,0a9.336,9.336,0,1,0,9.335,9.336A9.335,9.335,0,0,0,9.335,0Z" stroke="none"/>
          <path d="M 9.335422515869141 1 C 4.739252090454102 1 1.000001907348633 4.739310264587402 1.000001907348633 9.335539817810059 C 1.000001907348633 13.93177032470703 4.739252090454102 17.67107963562012 9.335422515869141 17.67107963562012 C 13.93159294128418 17.67107963562012 17.67084312438965 13.93177032470703 17.67084312438965 9.335539817810059 C 17.67084312438965 4.739310264587402 13.93159294128418 1 9.335422515869141 1 M 9.335422515869141 0 C 14.49123191833496 0 18.67084312438965 4.179659843444824 18.67084312438965 9.335539817810059 C 18.67084312438965 14.49141979217529 14.49123191833496 18.67107963562012 9.335422515869141 18.67107963562012 C 4.179612159729004 18.67107963562012 1.9073486328125e-06 14.49141979217529 1.9073486328125e-06 9.335539817810059 C 1.9073486328125e-06 4.179659843444824 4.179612159729004 0 9.335422515869141 0 Z" stroke="none" fill="#313130"/>
        </g>
      </g>
      <g id="Mask_Group_10" data-name="Mask Group 10" transform="translate(102.925 24.295) rotate(90)" clip-path="url(#clip-path-7)">
        <g id="Group_41628" data-name="Group 41628" transform="translate(41.888 -326.904) rotate(47)">
          <g id="Group_41627" data-name="Group 41627" transform="translate(0 0)">
            <path id="Path_46195" data-name="Path 46195" d="M39.105,21.488c18.64.261,24.972,3.939,25.729,3.307.8-.666-1.867-3.363-1.867-3.363.682-.492,9.809,3.164,10.205,1.791.27-.938-5.046-3.024-5.046-3.024s7.03,1.691,7.458.685-6.613-3.874-6.613-3.874,7.508,2.365,7.857,1.042-7.862-4.47-7.862-4.47,5.359,1.832,5.235.4c-.084-.964-15.17-6.683-27.816-9.538C8.771-4.045,0,2.235,0,2.235L3.636,13.568,5.262,24.823s9.881-3.67,33.843-3.334" transform="translate(256.299 200.285) rotate(60)" fill="#fff" stroke="#fff" stroke-width="1"/>
            <rect id="Rectangle_3390" data-name="Rectangle 3390" width="272.232" height="223.76" transform="translate(111.88 -0.001) rotate(30)" fill="none"/>
            <path id="Path_46196" data-name="Path 46196" d="M43.621,18.582C60.495,26.5,67.8,25.962,68.207,26.861c.423.946-3.157,2.206-3.157,2.206.4.741,10.21,1.446,9.963,2.853-.169.961-5.866.511-5.866.511s7.064,1.555,7.007,2.645-7.648.589-7.648.589,7.79,1.158,7.522,2.5-9.034.578-9.034.578,5.624.7,4.885,1.926c-.5.829-16.577-.629-29.2-3.593C5.126,28.26,0,18.782,0,18.782L8.25,10.19,9.725,0s12.2,8.406,33.9,18.582" transform="translate(299.85 328.835) rotate(-135)" fill="#313130" stroke="#fff" stroke-width="0.8"/>
          </g>
          <path id="Path_46197" data-name="Path 46197" d="M0,0Z" transform="matrix(-0.054, 0.999, -0.999, -0.054, 82.375, 167.017)" stroke="#707070" stroke-width="1" fill="url(#linear-gradient)"/>
          <path id="Path_46233" data-name="Path 46233" d="M0,0,271.983.2l.168,223.831-271.983-.2Z" transform="translate(12.675 113.196)" fill="none"/>
        </g>
      </g>
    </g>
    <g id="Group_41811" data-name="Group 41811" transform="translate(201.397 3053.163)">
      <path id="Path_3949" data-name="Path 3949" d="M551.957,140.826h-13.4l-8.042,8.042v-8.042c-20.245,0-21.389.21-21.445,0V116.7c.2.052,42.845,0,42.891,0C551.957,116.7,552.044,140.977,551.957,140.826Z" transform="translate(-478.382 -85.007)" fill="none" stroke="#fff" stroke-linecap="round" stroke-linejoin="round" stroke-width="1"/>
      <g id="Group_41803" data-name="Group 41803" transform="translate(-0.001)">
        <path id="Path_46268" data-name="Path 46268" d="M509.1,140.826h13.4l8.042,8.042v-8.042c20.244,0,21.389.21,21.445,0V116.7c-.2.052-42.845,0-42.891,0C509.1,116.7,509.018,140.977,509.1,140.826Z" transform="translate(-509.066 -116.7)" fill="#f0ddc9"/>
        <g id="Group_41802" data-name="Group 41802" transform="translate(5.631 6.532)">
          <g id="Component_1_4" data-name="Component 1 – 4">
            <line id="Line_25184" data-name="Line 25184" x2="31.757" fill="none" stroke="#fff" stroke-width="1"/>
          </g>
          <g id="Component_1_5" data-name="Component 1 – 5" transform="translate(0 5.4)">
            <line id="Line_25184-2" data-name="Line 25184" x2="31.757" fill="none" stroke="#fff" stroke-width="1"/>
          </g>
          <g id="Component_1_6" data-name="Component 1 – 6" transform="translate(0 10.799)">
            <line id="Line_25184-3" data-name="Line 25184" x2="31.757" fill="none" stroke="#fff" stroke-width="1"/>
          </g>
        </g>
      </g>
    </g>
  </g>
</svg>
