<svg xmlns="http://www.w3.org/2000/svg" xmlns:xlink="http://www.w3.org/1999/xlink" width="480" height="480" viewBox="0 0 480 480">
  <defs>
    <clipPath id="clip-_6_black">
      <rect width="480" height="480"/>
    </clipPath>
  </defs>
  <g id="_6_black" data-name="6_black" clip-path="url(#clip-_6_black)">
    <rect width="480" height="480" fill="#313130"/>
    <g id="Group_41804" data-name="Group 41804" transform="translate(-0.001)">
      <path id="Path_3949" data-name="Path 3949" d="M801.412,281.145H710.054L655.239,335.96V281.145c-137.988,0-145.789,1.433-146.173,0V116.7c1.334.357,292.034,0,292.346,0C801.412,116.7,802,282.17,801.412,281.145Z" transform="translate(-321.675 -116.7)" fill="none" stroke="#fff" stroke-linecap="round" stroke-linejoin="round" stroke-width="1"/>
      <g id="Group_41803" data-name="Group 41803" transform="translate(0 210.777)">
        <path id="Path_46268" data-name="Path 46268" d="M509.329,281.145h91.358L655.5,335.96V281.145c137.988,0,145.789,1.433,146.173,0V116.7c-1.334.357-292.033,0-292.346,0C509.329,116.7,508.737,282.17,509.329,281.145Z" transform="translate(-509.066 -116.7)" fill="#f0ddc9"/>
        <g id="Group_41802" data-name="Group 41802" transform="translate(38.379 44.52)">
          <g id="Component_1_1" data-name="Component 1 – 1">
            <line id="Line_25184" data-name="Line 25184" x2="216.457" fill="none" stroke="#313130" stroke-width="1"/>
          </g>
          <g id="Component_1_2" data-name="Component 1 – 2" transform="translate(0 36.803)">
            <line id="Line_25184-2" data-name="Line 25184" x2="216.457" fill="none" stroke="#313130" stroke-width="1"/>
          </g>
          <g id="Component_1_3" data-name="Component 1 – 3" transform="translate(0 73.607)">
            <line id="Line_25184-3" data-name="Line 25184" x2="216.457" fill="none" stroke="#313130" stroke-width="1"/>
          </g>
        </g>
      </g>
    </g>
  </g>
</svg>
