<svg xmlns="http://www.w3.org/2000/svg" xmlns:xlink="http://www.w3.org/1999/xlink" width="480" height="480" viewBox="0 0 480 480">
  <defs>
    <clipPath id="clip-path">
      <rect id="Rectangle_3392" data-name="Rectangle 3392" width="411.044" height="437.055" fill="none" stroke="#707070" stroke-width="1"/>
    </clipPath>
    <linearGradient id="linear-gradient" x1="-0.635" y1="-0.39" x2="-0.629" y2="-0.39" gradientUnits="objectBoundingBox">
      <stop offset="0" stop-color="#72a2dd"/>
      <stop offset="0.135" stop-color="#93b4dd"/>
      <stop offset="0.316" stop-color="#bac9df"/>
      <stop offset="0.496" stop-color="#d8d9df"/>
      <stop offset="0.672" stop-color="#ede5e0"/>
      <stop offset="0.842" stop-color="#faece0"/>
      <stop offset="1" stop-color="#ffefe1"/>
    </linearGradient>
    <clipPath id="clip-_5_black">
      <rect width="480" height="480"/>
    </clipPath>
  </defs>
  <g id="_5_black" data-name="5_black" clip-path="url(#clip-_5_black)">
    <rect width="480" height="480" fill="#313130"/>
    <g id="Group_41800" data-name="Group 41800" transform="translate(-0.001)">
      <g id="Group_41795" data-name="Group 41795" transform="translate(0 0)">
        <g id="Group_41563" data-name="Group 41563" transform="translate(0.004)">
          <line id="Line_25105" data-name="Line 25105" x1="90.525" y2="89.455" transform="translate(0 162.872)" fill="none" stroke="#fff" stroke-width="1"/>
          <g id="Path_46199" data-name="Path 46199" transform="translate(56.676)" fill="#c7d5c1">
            <path d="M 91.66224670410156 182.8245849609375 C 85.47667694091797 182.8245849609375 79.29515838623047 182.2014465332031 73.28936004638672 180.9724884033203 C 67.43645477294922 179.7748107910156 61.67933654785156 177.9877014160156 56.17795181274414 175.6608123779297 C 50.77631378173828 173.3760986328125 45.56640625 170.5482635498047 40.69292831420898 167.2557830810547 C 35.8656120300293 163.9945373535156 31.32622337341309 160.2491760253906 27.20081520080566 156.1237640380859 C 23.07540512084961 151.9983520507812 19.33006477355957 147.4589691162109 16.06879234313965 142.6316528320312 C 12.77633762359619 137.7581787109375 9.948473930358887 132.5482330322266 7.663769245147705 127.1466293334961 C 5.336883068084717 121.6452178955078 3.549769401550293 115.8880996704102 2.352087497711182 110.0351943969727 C 1.123133063316345 104.0293960571289 0.499996691942215 97.84785461425781 0.499996691942215 91.66228485107422 C 0.499996691942215 85.47671508789062 1.123133063316345 79.29517364501953 2.352087497711182 73.28937530517578 C 3.549769401550293 67.43647003173828 5.336883068084717 61.67937469482422 7.663769245147705 56.1779670715332 C 9.948473930358887 50.77635192871094 12.77633762359619 45.56642150878906 16.06879234313965 40.69294357299805 C 19.33006477355957 35.86565017700195 23.07540512084961 31.32623863220215 27.20081520080566 27.20083045959473 C 31.32622337341309 23.07542037963867 35.8656120300293 19.33008003234863 40.69292831420898 16.06880760192871 C 45.56640625 12.77635288238525 50.77631378173828 9.948489189147949 56.17795181274414 7.663784980773926 C 61.67933654785156 5.336898326873779 67.43645477294922 3.549784898757935 73.28936004638672 2.352102994918823 C 79.29515838623047 1.123148441314697 85.47667694091797 0.5000120997428894 91.66224670410156 0.5000120997428894 C 97.84781646728516 0.5000120997428894 104.0293350219727 1.123148441314697 110.0351333618164 2.352102994918823 C 115.8880386352539 3.549784898757935 121.6451568603516 5.336898326873779 127.1465454101562 7.663784980773926 C 132.5481719970703 9.948489189147949 137.7580871582031 12.77635288238525 142.6315612792969 16.06880760192871 C 147.4588775634766 19.33008003234863 151.9982757568359 23.07542037963867 156.1236724853516 27.20083045959473 C 160.2490844726562 31.32623863220215 163.9944305419922 35.86565017700195 167.2557067871094 40.69294357299805 C 170.5481567382812 45.56642150878906 173.3760223388672 50.77635192871094 175.6607208251953 56.1779670715332 C 177.9876098632812 61.67937469482422 179.7747192382812 67.43647003173828 180.972412109375 73.28937530517578 C 182.2013549804688 79.29517364501953 182.8244934082031 85.47671508789062 182.8244934082031 91.66228485107422 C 182.8244934082031 97.84785461425781 182.2013549804688 104.0293960571289 180.972412109375 110.0351943969727 C 179.7747192382812 115.8880996704102 177.9876098632812 121.6452178955078 175.6607208251953 127.1466293334961 C 173.3760223388672 132.5482330322266 170.5481567382812 137.7581787109375 167.2557067871094 142.6316528320312 C 163.9944305419922 147.4589691162109 160.2490844726562 151.9983520507812 156.1236724853516 156.1237640380859 C 151.9982757568359 160.2491760253906 147.4588775634766 163.9945373535156 142.6315612792969 167.2557830810547 C 137.7580871582031 170.5482635498047 132.5481719970703 173.3760986328125 127.1465454101562 175.6608123779297 C 121.6451568603516 177.9877014160156 115.8880386352539 179.7748107910156 110.0351333618164 180.9724884033203 C 104.0293350219727 182.2014465332031 97.84781646728516 182.8245849609375 91.66224670410156 182.8245849609375 Z" stroke="none"/>
            <path d="M 91.66224670410156 1 C 85.51026916503906 1 79.36245727539062 1.619720458984375 73.38957977294922 2.841949462890625 C 67.56900787353516 4.03302001953125 61.84371948242188 5.81024169921875 56.37272644042969 8.124282836914062 C 51.00083923339844 10.39640808105469 45.81954956054688 13.20870971679688 40.97283935546875 16.48309326171875 C 36.17189025878906 19.72654724121094 31.65727233886719 23.45147705078125 27.55436706542969 27.55438232421875 C 23.45146179199219 31.65728759765625 19.7265625 36.17190551757812 16.48310852050781 40.97283935546875 C 13.20872497558594 45.81956481933594 10.39640808105469 51.0008544921875 8.124298095703125 56.37273406982422 C 5.81024169921875 61.84373474121094 4.033035278320312 67.56904602050781 2.841964721679688 73.38961791992188 C 1.619720458984375 79.36249542236328 1.000015258789062 85.51030731201172 1.000015258789062 91.66228485107422 C 1.000015258789062 97.81426239013672 1.619720458984375 103.9620742797852 2.841964721679688 109.9349746704102 C 4.033035278320312 115.7555465698242 5.81024169921875 121.4808578491211 8.124298095703125 126.9518585205078 C 10.39640808105469 132.32373046875 13.20872497558594 137.5050201416016 16.48310852050781 142.3517456054688 C 19.7265625 147.1526947021484 23.45146179199219 151.6673126220703 27.55436706542969 155.7702178955078 C 31.65727233886719 159.8731231689453 36.17189025878906 163.5980224609375 40.97283935546875 166.8414764404297 C 45.81954956054688 170.1158599853516 51.00083923339844 172.9281616210938 56.37272644042969 175.2002868652344 C 61.84371948242188 177.5143280029297 67.56900787353516 179.2915649414062 73.38957977294922 180.4826202392578 C 79.36245727539062 181.7048492431641 85.51026916503906 182.3245697021484 91.66224670410156 182.3245697021484 C 97.81422424316406 182.3245697021484 103.9620361328125 181.7048492431641 109.9349136352539 180.4826202392578 C 115.755485534668 179.2915649414062 121.4807739257812 177.5143280029297 126.9517669677734 175.2002868652344 C 132.3236541748047 172.9281616210938 137.5049438476562 170.1158599853516 142.3516540527344 166.8414764404297 C 147.1526031494141 163.5980224609375 151.6672210693359 159.8731231689453 155.7701263427734 155.7702178955078 C 159.8730316162109 151.6673126220703 163.5979309082031 147.1526947021484 166.8413848876953 142.3517456054688 C 170.1157684326172 137.5050201416016 172.9280853271484 132.32373046875 175.2001953125 126.9518585205078 C 177.5142517089844 121.4808578491211 179.2914581298828 115.7555465698242 180.4825286865234 109.9349746704102 C 181.7047729492188 103.9620742797852 182.3244781494141 97.81426239013672 182.3244781494141 91.66228485107422 C 182.3244781494141 85.51030731201172 181.7047729492188 79.36249542236328 180.4825286865234 73.38961791992188 C 179.2914581298828 67.56904602050781 177.5142517089844 61.84373474121094 175.2001953125 56.37273406982422 C 172.9280853271484 51.0008544921875 170.1157684326172 45.81956481933594 166.8413848876953 40.97283935546875 C 163.5979309082031 36.17190551757812 159.8730316162109 31.65728759765625 155.7701263427734 27.55438232421875 C 151.6672210693359 23.45147705078125 147.1526031494141 19.72654724121094 142.3516540527344 16.48309326171875 C 137.5049438476562 13.20870971679688 132.3236541748047 10.39640808105469 126.9517669677734 8.124282836914062 C 121.4807739257812 5.81024169921875 115.755485534668 4.03302001953125 109.9349136352539 2.841949462890625 C 103.9620361328125 1.619720458984375 97.81422424316406 1 91.66224670410156 1 M 91.66224670410156 0 C 142.285888671875 0 183.3244781494141 41.03861999511719 183.3244781494141 91.66228485107422 C 183.3244781494141 142.2859954833984 142.285888671875 183.3245697021484 91.66224670410156 183.3245697021484 C 41.03860473632812 183.3245697021484 1.52587890625e-05 142.2859954833984 1.52587890625e-05 91.66228485107422 C 1.52587890625e-05 41.03861999511719 41.03860473632812 0 91.66224670410156 0 Z" stroke="none" fill="#c7d5c1"/>
          </g>
          <g id="Path_46267" data-name="Path 46267" transform="translate(90.081 32.134)" fill="none">
            <path d="M58.893,0A58.893,58.893,0,1,1,0,58.893,58.893,58.893,0,0,1,58.893,0Z" stroke="none"/>
            <path d="M 58.89278030395508 0.9999923706054688 C 51.07687377929688 0.9999923706054688 43.49526977539062 2.530532836914062 36.35861206054688 5.549087524414062 C 32.92844390869141 6.999931335449219 29.61996459960938 8.79571533203125 26.52507019042969 10.88658142089844 C 23.45933532714844 12.957763671875 20.57642364501953 15.33639526367188 17.95641326904297 17.95641326904297 C 15.33639526367188 20.57642364501953 12.957763671875 23.4593505859375 10.88658142089844 26.52508544921875 C 8.79571533203125 29.61996459960938 6.999931335449219 32.92845916748047 5.549087524414062 36.35862731933594 C 2.530532836914062 43.49528503417969 0.9999923706054688 51.07688903808594 0.9999923706054688 58.8928108215332 C 0.9999923706054688 66.70873260498047 2.530532836914062 74.29032897949219 5.549087524414062 81.42699432373047 C 6.999931335449219 84.85716247558594 8.79571533203125 88.16565704345703 10.88658142089844 91.26053619384766 C 12.957763671875 94.32627105712891 15.33639526367188 97.20919799804688 17.95641326904297 99.82920837402344 C 20.57642364501953 102.4492263793945 23.45933532714844 104.8278579711914 26.52507019042969 106.899040222168 C 29.61996459960938 108.9899063110352 32.92844390869141 110.7856903076172 36.35861206054688 112.2365341186523 C 43.49526977539062 115.2550888061523 51.07687377929688 116.7856292724609 58.89278030395508 116.7856292724609 C 66.70870208740234 116.7856292724609 74.290283203125 115.2550888061523 81.42694854736328 112.2365341186523 C 84.85711669921875 110.7856903076172 88.16561126708984 108.9899063110352 91.26049041748047 106.899040222168 C 94.32622528076172 104.8278579711914 97.20915222167969 102.4492263793945 99.82916259765625 99.82920837402344 C 102.4491806030273 97.20919799804688 104.8278121948242 94.32627105712891 106.8989791870117 91.26053619384766 C 108.9898376464844 88.16565704345703 110.7856292724609 84.85716247558594 112.2364730834961 81.42699432373047 C 115.2550277709961 74.29032897949219 116.7855682373047 66.70873260498047 116.7855682373047 58.8928108215332 C 116.7855682373047 51.07688903808594 115.2550277709961 43.49528503417969 112.2364730834961 36.35862731933594 C 110.7856292724609 32.92845916748047 108.9898376464844 29.61996459960938 106.8989791870117 26.52508544921875 C 104.8278121948242 23.4593505859375 102.4491806030273 20.57642364501953 99.82916259765625 17.95641326904297 C 97.20915222167969 15.33639526367188 94.32622528076172 12.957763671875 91.26049041748047 10.88658142089844 C 88.16561126708984 8.79571533203125 84.85711669921875 6.999931335449219 81.42694854736328 5.549087524414062 C 74.290283203125 2.530532836914062 66.70870208740234 0.9999923706054688 58.89278030395508 0.9999923706054688 M 58.89278030395508 -7.62939453125e-06 C 91.41836547851562 -7.62939453125e-06 117.7855682373047 26.36721038818359 117.7855682373047 58.8928108215332 C 117.7855682373047 91.41841125488281 91.41836547851562 117.7856292724609 58.89278030395508 117.7856292724609 C 26.36721038818359 117.7856292724609 -7.62939453125e-06 91.41841125488281 -7.62939453125e-06 58.8928108215332 C -7.62939453125e-06 26.36721038818359 26.36721038818359 -7.62939453125e-06 58.89278030395508 -7.62939453125e-06 Z" stroke="none" fill="#313130"/>
          </g>
        </g>
        <g id="Mask_Group_10" data-name="Mask Group 10" transform="translate(437.055 68.956) rotate(90)" clip-path="url(#clip-path)">
          <g id="Group_41628" data-name="Group 41628" transform="translate(-1147.56 809.288) rotate(-47)">
            <g id="Group_41627" data-name="Group 41627" transform="translate(51.093 92.873)">
              <path id="Path_46195" data-name="Path 46195" d="M180.132,30.835c81.841-9.9,111.258-33.8,114.3-30.53,3.188,3.45-9.7,20.087-9.7,20.087,2.769,2.509,44.431-22.53,45.551-14.854.762,5.245-23.487,19.58-23.487,19.58s31.585-12.844,33.007-7.285-30.741,25.148-30.741,25.148,33.984-16.919,34.916-9.506S307.483,62.6,307.483,62.6s24.322-12.9,23.136-4.672c-.8,5.553-69.525,45.082-126.256,67.123C35.622,190.614,0,158.637,0,158.637L21.054,92.154l12.2-65.131s41.666,16.541,146.873,3.813" transform="translate(1127.479 715.11) rotate(-60)" fill="#fff" stroke="#fff" stroke-width="1"/>
              <path id="Path_46269" data-name="Path 46269" d="M0,0,1178.221,96.273l79.13,1292.9L79.13,1292.9Z" transform="translate(0 628.676) rotate(-30)" fill="none"/>
              <path id="Path_46196" data-name="Path 46196" d="M185.3,132.22C257.434,84.9,288.455,87.631,290.22,82.342c1.85-5.566-13.288-12.742-13.288-12.742,1.728-4.36,43.455-9.043,42.486-17.271-.665-5.62-24.891-2.663-24.891-2.663s30.1-9.506,29.915-15.89-32.459-3.019-32.459-3.019,33.159-7.222,32.1-15.062-38.345-2.88-38.345-2.88,23.93-4.4,20.86-11.56c-2.073-4.83-70.458,4.615-124.258,22.688C22.31,77.7,0,133.5,0,133.5l34.565,49.868,5.694,59.607S92.579,193.05,185.3,132.22" transform="translate(1561.056 352.889) rotate(135)" fill="#313130" stroke="#fff" stroke-width="1"/>
            </g>
            <path id="Path_46197" data-name="Path 46197" d="M0,0Z" transform="matrix(-0.054, -0.999, 0.999, -0.054, 484.243, 924.583)" stroke="#707070" stroke-width="1" fill="url(#linear-gradient)"/>
            <path id="Path_46233" data-name="Path 46233" d="M179.281,1143.483,1538.149,1361.31,1358.868,217.827,0,0Z" transform="translate(0 0)" fill="none"/>
          </g>
        </g>
      </g>
    </g>
  </g>
</svg>
