<svg xmlns="http://www.w3.org/2000/svg" xmlns:xlink="http://www.w3.org/1999/xlink" width="1492.374" height="346.17" viewBox="0 0 1492.374 346.17">
  <defs>
    <clipPath id="clip-path">
      <rect id="Rectangle_3444" data-name="Rectangle 3444" width="244.927" height="232.557" fill="none" stroke="#f0ddc9" stroke-width="16"/>
    </clipPath>
    <clipPath id="clip-path-2">
      <rect id="Rectangle_3440" data-name="Rectangle 3440" width="161.141" height="223.395" transform="translate(0 0)" fill="none" stroke="#707070" stroke-width="1"/>
    </clipPath>
    <linearGradient id="linear-gradient" x1="-0.635" y1="1.39" x2="-0.629" y2="1.39" gradientUnits="objectBoundingBox">
      <stop offset="0" stop-color="#72a2dd"/>
      <stop offset="0.135" stop-color="#93b4dd"/>
      <stop offset="0.316" stop-color="#bac9df"/>
      <stop offset="0.496" stop-color="#d8d9df"/>
      <stop offset="0.672" stop-color="#ede5e0"/>
      <stop offset="0.842" stop-color="#faece0"/>
      <stop offset="1" stop-color="#ffefe1"/>
    </linearGradient>
    <clipPath id="clip-path-3">
      <rect id="Rectangle_3376" data-name="Rectangle 3376" width="308.366" height="245.387" transform="translate(0 64.343)" fill="none" stroke="#707070" stroke-width="1"/>
    </clipPath>
    <clipPath id="clip-path-4">
      <rect id="Rectangle_3369" data-name="Rectangle 3369" width="397.149" height="269.561" fill="none"/>
    </clipPath>
    <clipPath id="clip-path-7">
      <rect id="Rectangle_3392" data-name="Rectangle 3392" width="214.997" height="298.058" transform="translate(0 0)" fill="none" stroke="#707070" stroke-width="1"/>
    </clipPath>
  </defs>
  <g id="Group_41794" data-name="Group 41794" transform="translate(-341.478 -130.5)">
    <g id="Group_41793" data-name="Group 41793" transform="translate(-4.602 -58)">
      <g id="Group_41778" data-name="Group 41778" transform="translate(1300.27 193.833)">
        <path id="Path_46139" data-name="Path 46139" d="M239.831,0V227.414H0v-37.9H40.084v-37.9H80.167v-37.9h40.084V75.8h40.086V37.9h40.081V0Z" transform="translate(0 0)" fill="#313130" stroke="#fff" stroke-width="1"/>
      </g>
      <g id="Group_41792" data-name="Group 41792" transform="translate(1295.174 189.5)">
        <g id="Group_41791" data-name="Group 41791" clip-path="url(#clip-path)">
          <path id="Path_46266" data-name="Path 46266" d="M5,232.747V194.789H45.084V156.832H85.167V118.875h40.084V80.915h40.086V42.957h40.081V5h39.413" transform="translate(0.096 -0.19)" fill="none" stroke="#f0ddc9" stroke-width="16"/>
        </g>
      </g>
    </g>
    <path id="Path_46251" data-name="Path 46251" d="M792,0" transform="translate(454.137 357.5)" fill="none" stroke="#fff" stroke-width="1"/>
    <g id="Group_41563" data-name="Group 41563" transform="translate(1693.539 117.765)">
      <line id="Line_25105" data-name="Line 25105" x2="45.074" y2="44.541" transform="translate(94.887 94.332)" fill="none" stroke="#fff" stroke-width="1"/>
      <g id="Path_46199" data-name="Path 46199" transform="translate(20.461 13.235)" fill="#c7d5c1">
        <path d="M 45.63999938964844 90.77999877929688 C 39.54591751098633 90.77999877929688 33.6343879699707 89.58657836914062 28.06963539123535 87.23287963867188 C 22.6944465637207 84.95937347412109 17.86694145202637 81.70454406738281 13.72119903564453 77.55879974365234 C 9.575458526611328 73.41305541992188 6.320634841918945 68.58555603027344 4.047117233276367 63.21037673950195 C 1.693422913551331 57.64561080932617 0.4999994039535522 51.73408126831055 0.4999994039535522 45.63999938964844 C 0.4999994039535522 39.54591751098633 1.693422913551331 33.6343879699707 4.047117233276367 28.06963539123535 C 6.320634841918945 22.6944465637207 9.575458526611328 17.86694145202637 13.72119903564453 13.72119903564453 C 17.86694145202637 9.575458526611328 22.6944465637207 6.320634841918945 28.06963539123535 4.047117233276367 C 33.6343879699707 1.693422913551331 39.54591751098633 0.4999994039535522 45.63999938964844 0.4999994039535522 C 51.73408126831055 0.4999994039535522 57.64561080932617 1.693422913551331 63.21036529541016 4.047117233276367 C 68.58555603027344 6.320634841918945 73.41305541992188 9.575458526611328 77.55879974365234 13.72119903564453 C 81.70454406738281 17.86694145202637 84.95936584472656 22.6944465637207 87.23287963867188 28.06963539123535 C 89.58657836914062 33.6343879699707 90.77999877929688 39.54591751098633 90.77999877929688 45.63999938964844 C 90.77999877929688 51.73408126831055 89.58657836914062 57.64561080932617 87.23287963867188 63.21037673950195 C 84.95936584472656 68.58555603027344 81.70454406738281 73.41305541992188 77.55879974365234 77.55879974365234 C 73.41305541992188 81.70454406738281 68.58555603027344 84.95937347412109 63.21036529541016 87.23287963867188 C 57.64561080932617 89.58657836914062 51.73408126831055 90.77999877929688 45.63999938964844 90.77999877929688 Z" stroke="none"/>
        <path d="M 45.63999938964844 1 C 39.61320114135742 1 33.7672004699707 2.180137634277344 28.26440048217773 4.507621765136719 C 22.94882202148438 6.755928039550781 18.17473602294922 9.974777221679688 14.07475280761719 14.07475280761719 C 9.974777221679688 18.17473602294922 6.755928039550781 22.94882202148438 4.507621765136719 28.26440048217773 C 2.180137634277344 33.7672004699707 1 39.61320114135742 1 45.63999938964844 C 1 51.66679763793945 2.180137634277344 57.51279830932617 4.507621765136719 63.01560211181641 C 6.755928039550781 68.3311767578125 9.974777221679688 73.10527038574219 14.07475280761719 77.20524597167969 C 18.17473602294922 81.30523681640625 22.94882202148438 84.52407836914062 28.26440048217773 86.77237701416016 C 33.7672004699707 89.09986114501953 39.61320114135742 90.27999877929688 45.63999938964844 90.27999877929688 C 51.66679763793945 90.27999877929688 57.51278686523438 89.09986114501953 63.01558685302734 86.77237701416016 C 68.3311767578125 84.52407836914062 73.10526275634766 81.30523681640625 77.20523834228516 77.20524597167969 C 81.30522155761719 73.10526275634766 84.52407836914062 68.3311767578125 86.77237701416016 63.01560211181641 C 89.09986114501953 57.51279830932617 90.27999877929688 51.66679763793945 90.27999877929688 45.63999938964844 C 90.27999877929688 39.61320114135742 89.09986114501953 33.7672004699707 86.77237701416016 28.26440048217773 C 84.52407836914062 22.94882202148438 81.30522155761719 18.17473602294922 77.20523834228516 14.07475280761719 C 73.10526275634766 9.974777221679688 68.3311767578125 6.755928039550781 63.01558685302734 4.507621765136719 C 57.51278686523438 2.180137634277344 51.66679763793945 1 45.63999938964844 1 M 45.63999938964844 0 C 70.84626007080078 0 91.27999877929688 20.43372344970703 91.27999877929688 45.63999938964844 C 91.27999877929688 70.84628295898438 70.84626007080078 91.27999877929688 45.63999938964844 91.27999877929688 C 20.43372344970703 91.27999877929688 0 70.84628295898438 0 45.63999938964844 C 0 20.43372344970703 20.43372344970703 0 45.63999938964844 0 Z" stroke="none" fill="#c7d5c1"/>
      </g>
      <g id="Path_46267" data-name="Path 46267" transform="translate(36.461 29.235)" fill="none">
        <path d="M29.324,0A29.324,29.324,0,1,0,58.647,29.324,29.324,29.324,0,0,0,29.324,0Z" stroke="none"/>
        <path d="M 29.32359313964844 1.000003814697266 C 25.49949264526367 1.000003814697266 21.79031372070312 1.748733520507812 18.2990837097168 3.22540283203125 C 14.92644500732422 4.651901245117188 11.89730453491211 6.694282531738281 9.295791625976562 9.295791625976562 C 6.694282531738281 11.89730453491211 4.651901245117188 14.92644500732422 3.22540283203125 18.2990837097168 C 1.748733520507812 21.79031372070312 1.000003814697266 25.49949264526367 1.000003814697266 29.32359313964844 C 1.000003814697266 33.1476936340332 1.748733520507812 36.85688400268555 3.22540283203125 40.34811401367188 C 4.651901245117188 43.72074127197266 6.694282531738281 46.74988174438477 9.295791625976562 49.35140228271484 C 11.89730453491211 51.95291137695312 14.92644500732422 53.99528503417969 18.2990837097168 55.42178344726562 C 21.79031372070312 56.89845275878906 25.49949264526367 57.64718246459961 29.32359313964844 57.64718246459961 C 33.1476936340332 57.64718246459961 36.85687255859375 56.89845275878906 40.34810256958008 55.42178344726562 C 43.72074127197266 53.99528503417969 46.74988174438477 51.95291137695312 49.35139465332031 49.35140228271484 C 51.95290374755859 46.74988174438477 53.99528503417969 43.72074127197266 55.42178344726562 40.34811401367188 C 56.89845275878906 36.85688400268555 57.64718246459961 33.1476936340332 57.64718246459961 29.32359313964844 C 57.64718246459961 25.49949264526367 56.89845275878906 21.79031372070312 55.42178344726562 18.2990837097168 C 53.99528503417969 14.92644500732422 51.95290374755859 11.89730453491211 49.35139465332031 9.295791625976562 C 46.74988174438477 6.694282531738281 43.72074127197266 4.651901245117188 40.34810256958008 3.22540283203125 C 36.85687255859375 1.748733520507812 33.1476936340332 1.000003814697266 29.32359313964844 1.000003814697266 M 29.32359313964844 3.814697265625e-06 C 45.51856231689453 3.814697265625e-06 58.64718246459961 13.12862396240234 58.64718246459961 29.32359313964844 C 58.64718246459961 45.51857376098633 45.51856231689453 58.64718246459961 29.32359313964844 58.64718246459961 C 13.12862396240234 58.64718246459961 3.814697265625e-06 45.51857376098633 3.814697265625e-06 29.32359313964844 C 3.814697265625e-06 13.12862396240234 13.12862396240234 3.814697265625e-06 29.32359313964844 3.814697265625e-06 Z" stroke="none" fill="#313130"/>
      </g>
    </g>
    <line id="Line_25168" data-name="Line 25168" y2="342" transform="translate(787.5 130.5)" fill="none" stroke="#fff" stroke-width="1"/>
    <line id="Line_25182" data-name="Line 25182" x2="299" y2="340" transform="translate(638.5 131.5)" fill="none" stroke="#fff" stroke-width="1"/>
    <g id="Mask_Group_13" data-name="Mask Group 13" transform="translate(341.479 408.484) rotate(-90)" clip-path="url(#clip-path-2)">
      <g id="Group_41774" data-name="Group 41774" transform="translate(90.915 -709.532) rotate(47)">
        <g id="Group_41773" data-name="Group 41773" transform="translate(0 0)">
          <path id="Path_46253" data-name="Path 46253" d="M96.4,52.972c45.952.643,61.559,9.71,63.427,8.153,1.962-1.641-4.6-8.291-4.6-8.291,1.682-1.213,24.18,7.8,25.158,4.416.666-2.312-12.439-7.455-12.439-7.455s17.331,4.167,18.386,1.689-16.3-9.549-16.3-9.549,18.509,5.83,19.368,2.569-19.382-11.019-19.382-11.019,13.211,4.517,12.906,1c-.206-2.376-37.4-16.475-68.572-23.513C21.622-9.972,0,5.51,0,5.51L8.964,33.447l4.008,27.745s24.359-9.047,83.43-8.22" transform="translate(545.828 399.04) rotate(60)" fill="#fff" stroke="#fff" stroke-width="1"/>
          <rect id="Rectangle_3439" data-name="Rectangle 3439" width="590.87" height="485.657" transform="translate(242.829 0) rotate(30)" fill="none"/>
        </g>
        <path id="Path_46255" data-name="Path 46255" d="M0,0Z" transform="matrix(-0.054, 0.999, -0.999, -0.054, 178.792, 362.503)" stroke="#707070" stroke-width="1" fill="url(#linear-gradient)"/>
        <path id="Path_46256" data-name="Path 46256" d="M0,0,590.324.446l.367,485.813L.367,485.813Z" transform="translate(27.512 245.686)" fill="none"/>
      </g>
    </g>
    <g id="Group_41745" data-name="Group 41745" transform="translate(24.795 -31.415)">
      <path id="Path_46234" data-name="Path 46234" d="M3.922,0,84.993,3.923,83.38,37.267a16.475,16.475,0,0,1-8.39-4.083,13.975,13.975,0,1,0-.889,21.6,15.941,15.941,0,0,1,8.581-3.1L81.07,84.993,47.764,83.382a15.938,15.938,0,0,0,3.1,8.581,13.962,13.962,0,0,1-11.1,22.365h-.115a14.409,14.409,0,0,1-2.211-.182,13.964,13.964,0,0,1-8.172-23.073,16.469,16.469,0,0,0,4.082-8.39L0,81.071Z" transform="translate(1187.166 503.087) rotate(177)" fill="#313130" stroke="#fff" stroke-width="1"/>
    </g>
    <g id="Group_41743" data-name="Group 41743" transform="translate(340.953 199.399)">
      <g id="Group_41505" data-name="Group 41505" transform="translate(597.751 235.665) rotate(180)">
        <g id="Group_41503" data-name="Group 41503" transform="translate(597.226 0.017) rotate(90)">
          <g id="Group_41566" data-name="Group 41566">
            <path id="Path_46138" data-name="Path 46138" d="M224.947,0C224.947,149.253,0,149.36,0,298.613S225.046,447.866,225.046,597.226" fill="none" stroke="#fff" stroke-miterlimit="10" stroke-width="3"/>
          </g>
        </g>
      </g>
    </g>
    <g id="Group_41770" data-name="Group 41770" transform="translate(936.975 199.399)">
      <g id="Group_41505-2" data-name="Group 41505" transform="translate(597.751 235.665) rotate(180)">
        <g id="Group_41503-2" data-name="Group 41503" transform="translate(597.226 0.017) rotate(90)">
          <g id="Group_41566-2" data-name="Group 41566">
            <path id="Path_46138-2" data-name="Path 46138" d="M224.947,0C224.947,149.253,0,149.36,0,298.613S225.046,447.866,225.046,597.226" fill="none" stroke="#fff" stroke-miterlimit="10" stroke-width="3"/>
          </g>
        </g>
      </g>
      <g id="Group_41776" data-name="Group 41776" transform="translate(1194.978 235.665) rotate(180)">
        <g id="Group_41503-3" data-name="Group 41503" transform="translate(597.226 0.017) rotate(90)">
          <g id="Group_41566-3" data-name="Group 41566">
            <path id="Path_46138-3" data-name="Path 46138" d="M224.947,0C224.947,149.253,0,149.36,0,298.613" fill="none" stroke="#fff" stroke-miterlimit="10" stroke-width="3"/>
          </g>
        </g>
      </g>
    </g>
    <g id="Mask_Group_8" data-name="Mask Group 8" transform="translate(928.271 98.754)" clip-path="url(#clip-path-3)">
      <g id="Group_41615" data-name="Group 41615" transform="translate(33.424 64.343)">
        <g id="Group_41599" data-name="Group 41599" transform="translate(13.74)">
          <g id="Group_41598" data-name="Group 41598" clip-path="url(#clip-path-4)">
            <path id="Path_46175" data-name="Path 46175" d="M275.392,162.008s-26.112-3.789-77.312-31.486c-36.188-19.578-67.1-52.076-65.687-55.255s10.589,6.978,10.589,6.978-13.663-16.286-11.373-18.689,15.381,11.4,15.381,11.4-11.514-14.326-9.432-15.961S152.515,69.17,152.515,69.17s-8.788-10.649-7.117-12.325c2.45-2.454,17.449,15.985,19.468,15.737,0,0-2.467-8.844,0-9.327,2.339-.459,5.476,12.44,13.377,15.35,65.189,24,115.231,27.5,115.231,27.5Z" transform="translate(8.699 5.114)" fill="#313130" stroke="#fff" stroke-width="1"/>
          </g>
        </g>
        <path id="Path_46177" data-name="Path 46177" d="M144.78,0,101.417,1.1a21.41,21.41,0,0,0,5.052,11.02A18.144,18.144,0,0,1,95.163,41.844,18.306,18.306,0,0,1,83,39.254a18.137,18.137,0,0,1-4.617-26.629A20.7,20.7,0,0,0,82.665,1.571L39.35,2.667l1.1,43.315A20.7,20.7,0,0,1,29.392,41.7,18.146,18.146,0,0,0,.173,58.48,18.144,18.144,0,0,0,29.9,69.786a21.42,21.42,0,0,1,11.02-5.053h0l1.1,43.364,105.43-2.668Z" transform="matrix(1, 0.017, -0.017, 1, 32.43, 29.102)" fill="#c7d5c1" stroke="#c7d5c1" stroke-width="1"/>
        <g id="Group_41609" data-name="Group 41609" transform="translate(13.74)">
          <g id="Group_41608" data-name="Group 41608" clip-path="url(#clip-path-4)">
            <path id="Path_46180" data-name="Path 46180" d="M282.708,192.64s-28.744-1.777-87.326-26.488c-41.409-17.467-78.443-49.538-77.242-53.144s12.249,6.468,12.249,6.468-16.57-16.264-14.335-19.117,17.924,10.771,17.924,10.771-14.03-14.36-11.938-16.357,17.336,9.486,17.336,9.486S128.7,93.61,130.338,91.61c2.4-2.924,20.653,15.539,22.822,15.057,0,0-3.615-9.356-.986-10.14,2.5-.744,7.265,12.947,16.161,15.277,73.4,19.221,128.132,18.158,128.132,18.158Z" transform="translate(3.579 -2.14)" fill="#fff" stroke="#fff" stroke-width="1"/>
          </g>
        </g>
      </g>
    </g>
    <g id="Mask_Group_10" data-name="Mask Group 10" transform="translate(1833.5 194.529) rotate(90)" clip-path="url(#clip-path-7)">
      <g id="Group_41628" data-name="Group 41628" transform="translate(121.3 -946.674) rotate(47)">
        <g id="Group_41627" data-name="Group 41627" transform="translate(0 0)">
          <path id="Path_46195" data-name="Path 46195" d="M113.244,62.226c53.98.755,72.314,11.407,74.508,9.577,2.3-1.928-5.407-9.74-5.407-9.74,1.975-1.425,28.4,9.163,29.553,5.188.783-2.716-14.612-8.758-14.612-8.758s20.358,4.9,21.6,1.984S199.733,49.26,199.733,49.26s21.742,6.849,22.752,3.018-22.769-12.945-22.769-12.945,15.519,5.306,15.161,1.169c-.242-2.791-43.931-19.353-80.552-27.621C25.4-11.714,0,6.473,0,6.473L10.53,39.29l4.708,32.592s28.615-10.627,98.006-9.656" transform="translate(742.209 580) rotate(60)" fill="#fff" stroke="#fff" stroke-width="1"/>
          <rect id="Rectangle_3390" data-name="Rectangle 3390" width="788.353" height="647.975" transform="translate(323.987 0) rotate(30)" fill="none"/>
          <path id="Path_46196" data-name="Path 46196" d="M126.32,53.811c48.865,22.924,70.031,21.37,71.2,23.974,1.225,2.74-9.142,6.387-9.142,6.387,1.15,2.144,29.566,4.187,28.851,8.261-.49,2.783-16.987,1.48-16.987,1.48s20.456,4.5,20.29,7.661-22.148,1.705-22.148,1.705,22.558,3.353,21.782,7.237-26.16,1.675-26.16,1.675,16.285,2.018,14.145,5.579c-1.445,2.4-48-1.82-84.563-10.4C14.844,81.837,0,54.39,0,54.39L23.891,29.508,28.163,0S63.5,24.343,126.32,53.811" transform="translate(868.331 952.263) rotate(-135)" fill="#313130" stroke="#fff" stroke-width="1"/>
        </g>
        <path id="Path_46197" data-name="Path 46197" d="M0,0Z" transform="matrix(-0.054, 0.999, -0.999, -0.054, 238.549, 483.66)" stroke="#707070" stroke-width="1" fill="url(#linear-gradient)"/>
        <path id="Path_46233" data-name="Path 46233" d="M0,0,787.624.6l.49,648.182L.49,648.182Z" transform="translate(36.707 327.799)" fill="none"/>
      </g>
    </g>
    <g id="Group_41771" data-name="Group 41771" transform="translate(0 -61)">
      <g id="Group_41741" data-name="Group 41741" transform="translate(663.738 245.5)">
        <line id="Line_25166" data-name="Line 25166" x1="153.582" transform="translate(-25.737 116.5)" fill="none" stroke="#fff" stroke-width="1"/>
        <line id="Line_25179" data-name="Line 25179" x1="153.582" transform="translate(120.082 116.5)" fill="none" stroke="#fff" stroke-width="1"/>
      </g>
      <g id="Path_46229" data-name="Path 46229" transform="translate(742 316)" fill="#f0ddc9">
        <path d="M 45.63965606689453 90.77915954589844 C 39.54561996459961 90.77915954589844 33.63414001464844 89.58574676513672 28.06941986083984 87.23207092285156 C 22.69427871704102 84.95858001708984 17.8668098449707 81.70378112792969 13.72110271453857 77.55808258056641 C 9.575385093688965 73.41237640380859 6.320585250854492 68.58492279052734 4.047091484069824 63.20979309082031 C 1.693408966064453 57.64507293701172 0.4999972581863403 51.73360443115234 0.4999972581863403 45.63957977294922 C 0.4999972581863403 39.54555511474609 1.693408966064453 33.63408660888672 4.047091484069824 28.06936836242676 C 6.320585250854492 22.69423866271973 9.575385093688965 17.86677932739258 13.72110271453857 13.72107410430908 C 17.8668098449707 9.575379371643066 22.69427871704102 6.320580005645752 28.06941986083984 4.047085762023926 C 33.63414001464844 1.69341504573822 39.54561996459961 0.5000032782554626 45.63965606689453 0.5000032782554626 C 51.73369216918945 0.5000032782554626 57.64517211914062 1.69341504573822 63.20989227294922 4.047085762023926 C 68.58502960205078 6.320580005645752 73.41250610351562 9.575379371643066 77.55821228027344 13.72107410430908 C 81.70392608642578 17.86677932739258 84.95872497558594 22.69423866271973 87.23222351074219 28.06936836242676 C 89.58589935302734 33.63408660888672 90.77931213378906 39.54555511474609 90.77931213378906 45.63957977294922 C 90.77931213378906 51.73360443115234 89.58589935302734 57.64507293701172 87.23222351074219 63.20979309082031 C 84.95872497558594 68.58492279052734 81.70392608642578 73.41237640380859 77.55821228027344 77.55808258056641 C 73.41250610351562 81.70378112792969 68.58502960205078 84.95858001708984 63.20989227294922 87.23207092285156 C 57.64517211914062 89.58574676513672 51.73369216918945 90.77915954589844 45.63965606689453 90.77915954589844 Z" stroke="none"/>
        <path d="M 45.63965606689453 0.9999923706054688 C 39.61289215087891 0.9999923706054688 33.76694488525391 2.18011474609375 28.26419448852539 4.507575988769531 C 22.94865417480469 6.755867004394531 18.17459106445312 9.974678039550781 14.07464599609375 14.07463073730469 C 9.974693298339844 18.17456817626953 6.755867004394531 22.94861602783203 4.507591247558594 28.26414108276367 C 2.180122375488281 33.76689147949219 0.9999923706054688 39.61283111572266 0.9999923706054688 45.63957977294922 C 0.9999923706054688 51.66632843017578 2.180122375488281 57.51226806640625 4.507591247558594 63.0150146484375 C 6.755867004394531 68.33054351806641 9.974693298339844 73.10458374023438 14.07464599609375 77.20452880859375 C 18.17459106445312 81.30446624755859 22.94865417480469 84.52329254150391 28.26419448852539 86.77156829833984 C 33.76694488525391 89.09902954101562 39.61289215087891 90.27915191650391 45.63965606689453 90.27915191650391 C 51.66641998291016 90.27915191650391 57.51236724853516 89.09902954101562 63.01511764526367 86.77156829833984 C 68.33065795898438 84.52329254150391 73.10470581054688 81.30446624755859 77.20465850830078 77.20452880859375 C 81.30460357666016 73.10458374023438 84.52342987060547 68.33054351806641 86.77172088623047 63.0150146484375 C 89.09918212890625 57.51226806640625 90.27930450439453 51.66632843017578 90.27930450439453 45.63957977294922 C 90.27930450439453 39.61283111572266 89.09918212890625 33.76689147949219 86.77172088623047 28.26414108276367 C 84.52342987060547 22.94861602783203 81.30460357666016 18.17456817626953 77.20465850830078 14.07463073730469 C 73.10470581054688 9.974678039550781 68.33065795898438 6.755867004394531 63.01511764526367 4.507575988769531 C 57.51236724853516 2.18011474609375 51.66641998291016 0.9999923706054688 45.63965606689453 0.9999923706054688 M 45.63965606689453 -7.62939453125e-06 C 70.84574127197266 -7.62939453125e-06 91.27930450439453 20.43353271484375 91.27930450439453 45.63957977294922 C 91.27930450439453 70.84562683105469 70.84574127197266 91.27915191650391 45.63965606689453 91.27915191650391 C 20.43357086181641 91.27915191650391 -7.62939453125e-06 70.84562683105469 -7.62939453125e-06 45.63957977294922 C -7.62939453125e-06 20.43353271484375 20.43357086181641 -7.62939453125e-06 45.63965606689453 -7.62939453125e-06 Z" stroke="none" fill="#f0ddc9"/>
      </g>
    </g>
    <g id="Group_41789" data-name="Group 41789" transform="translate(-154 27.173)">
      <path id="Path_46264" data-name="Path 46264" d="M22378.992,2102.618l46.059,13.876,46.846-13.876-46.846-11.02Z" transform="translate(-21818.957 -1731)" fill="none" stroke="#fff" stroke-width="1"/>
      <path id="Path_46265" data-name="Path 46265" d="M22377.951,2097.86v56.524l46.168,16.888,49.072-16.888V2097.86" transform="translate(-21819.002 -1726.283)" fill="none" stroke="#fff" stroke-width="1"/>
      <line id="Line_25183" data-name="Line 25183" y2="59.613" transform="translate(605.501 384.973)" fill="none" stroke="#fff" stroke-width="1"/>
    </g>
    <g id="Group_41790" data-name="Group 41790" transform="translate(-61.76 -81.614)">
      <path id="Path_46265-2" data-name="Path 46265" d="M22377.951,2097.86v69.468l56.74,20.755,60.311-20.755V2097.86" transform="translate(-21819.002 -1723.769)" fill="#c7d5c1" stroke="#c7d5c1" stroke-width="1"/>
      <line id="Line_25183-2" data-name="Line 25183" y2="75.559" transform="translate(616.162 390.555)" fill="none" stroke="#313130" stroke-width="1"/>
      <path id="Path_46264-2" data-name="Path 46264" d="M22378.107,2105.141l57.75,17.031,61.455-17.031-61.455-13.071Z" transform="translate(-21820.043 -1731)" fill="#c7d5c1" stroke="#313130" stroke-width="1"/>
    </g>
    <line id="Line_25175" data-name="Line 25175" y2="340" transform="translate(638.5 131.5)" fill="none" stroke="#7e8082" stroke-width="1"/>
    <line id="Line_25176" data-name="Line 25176" y2="340" transform="translate(937.5 131.5)" fill="none" stroke="#7e8082" stroke-width="1"/>
    <line id="Line_25178" data-name="Line 25178" y2="340" transform="translate(1535.5 131.5)" fill="none" stroke="#7e8082" stroke-width="1"/>
    <line id="Line_25177" data-name="Line 25177" y2="340" transform="translate(1236.5 131.5)" fill="none" stroke="#7e8082" stroke-width="1"/>
  </g>
</svg>
