<svg xmlns="http://www.w3.org/2000/svg" width="33.868" height="37.011" viewBox="0 0 33.868 37.011">
  <g id="Group_41780" data-name="Group 41780" transform="translate(-314.5 -156.5)">
    <g id="Group_9255" data-name="Group 9255" transform="translate(315 157)">
      <path id="Path_31145" data-name="Path 31145" d="M460.992,197.831v11.953a19.267,19.267,0,0,0,12.864,17.949l1.754.648a5.271,5.271,0,0,0,3.631,0l1.754-.648a19.269,19.269,0,0,0,12.864-17.949V197.831a2.4,2.4,0,0,0-1.463-2.2,39.779,39.779,0,0,0-29.944,0A2.4,2.4,0,0,0,460.992,197.831Z" transform="translate(-460.992 -192.704)" fill="none" stroke="#313130" stroke-linecap="round" stroke-linejoin="round" stroke-width="1"/>
    </g>
    <path id="Path_31141" data-name="Path 31141" d="M432.389,206.915a.745.745,0,0,0-.745-.744h-3.721v-3.721a.744.744,0,0,0-.743-.744H424.2a.744.744,0,0,0-.744.744v3.721h-3.722a.744.744,0,0,0-.744.744v2.977a.745.745,0,0,0,.744.744h3.722v3.721a.745.745,0,0,0,.744.744h2.977a.745.745,0,0,0,.743-.744v-3.721h3.721a.746.746,0,0,0,.745-.744Z" transform="translate(-93.732 -33.237)" fill="none" stroke="#313130" stroke-linecap="round" stroke-linejoin="round" stroke-width="1"/>
  </g>
</svg>
