<?xml version="1.0" encoding="UTF-8"?>
<svg id="Warstwa_2" xmlns="http://www.w3.org/2000/svg" viewBox="0 0 385.3 384.6">
  <defs>
    <style>
      .cls-1 {
        fill: none;
        stroke: #fff;
        stroke-miterlimit: 10;
      }
    </style>
  </defs>
  <g id="Warstwa_1-2" data-name="Warstwa_1">
    <g>
      <line class="cls-1" x1=".6" y1="384.6" x2=".6" y2=".6" vector-effect="non-scaling-stroke"/>
      <g>
        <g>
          <line class="cls-1" x1="192.5" y1="384.6" x2="192.5" y2="4.2" vector-effect="non-scaling-stroke"/>
          <line class="cls-1" x1="192.5" y1="384.6" x2="192.5" y2=".6" vector-effect="non-scaling-stroke"/>
          <line class="cls-1" x1="96.5" y1="384.6" x2="96.5" y2="193.2" vector-effect="non-scaling-stroke"/>
          <line class="cls-1" x1="288.5" y1="384.6" x2="288.5" y2="192.5" vector-effect="non-scaling-stroke"/>
          <path class="cls-1" d="M192.5,96.5c53,0,96-43,96-96H96.5c0,53.1,43,96,96,96Z" vector-effect="non-scaling-stroke"/>
          <path class="cls-1" d="M192.5,288.5c53,0,96-43,96-96H96.5c0,53.1,43,96,96,96Z" vector-effect="non-scaling-stroke"/>
          <path class="cls-1" d="M288.5,192.5c53,0,96-43,96-96h-192c0,53.1,43,96,96,96Z" vector-effect="non-scaling-stroke"/>
          <path class="cls-1" d="M96.5,192.5c53,0,96-43,96-96H.5c.1,53.1,43,96,96,96Z" vector-effect="non-scaling-stroke"/>
        </g>
        <line class="cls-1" x1="384.8" y1="384.6" x2="384.8" y2=".6" vector-effect="non-scaling-stroke"/>
      </g>
    </g>
  </g>
</svg>